<svg width="24" height="24" viewBox="0 0 24 24" fill="none" xmlns="http://www.w3.org/2000/svg">
<path d="M12.125 2C10.0483 2 8.01823 2.61581 6.29152 3.76957C4.5648 4.92332 3.21899 6.5632 2.42427 8.48182C1.62955 10.4004 1.42161 12.5116 1.82676 14.5484C2.2319 16.5852 3.23193 18.4562 4.70038 19.9246C6.16883 21.3931 8.03975 22.3931 10.0765 22.7982C12.1134 23.2034 14.2246 22.9954 16.1432 22.2007C18.0618 21.406 19.7017 20.0602 20.8554 18.3335C22.0092 16.6068 22.625 14.5767 22.625 12.5C22.6217 9.71623 21.5144 7.04742 19.546 5.079C17.5776 3.11059 14.9088 2.00328 12.125 2ZM12.125 21.0909C10.4259 21.0909 8.76492 20.5871 7.35215 19.6431C5.93938 18.6991 4.83826 17.3574 4.18804 15.7876C3.53781 14.2178 3.36768 12.4905 3.69917 10.824C4.03065 9.15752 4.84885 7.62677 6.05031 6.42531C7.25177 5.22385 8.78253 4.40564 10.449 4.07416C12.1155 3.74268 13.8428 3.91281 15.4126 4.56303C16.9824 5.21326 18.3241 6.31438 19.2681 7.72714C20.2121 9.13991 20.7159 10.8009 20.7159 12.5C20.7131 14.7776 19.8071 16.9611 18.1966 18.5716C16.5861 20.1821 14.4026 21.0881 12.125 21.0909Z" fill="#ED2E3D"/>
<path d="M13.0771 12.1079V6.77583C13.0771 6.52267 12.9765 6.27988 12.7975 6.10087C12.6185 5.92186 12.3757 5.82129 12.1225 5.82129C11.8694 5.82129 11.6266 5.92186 11.4475 6.10087C11.2685 6.27988 11.168 6.52267 11.168 6.77583V12.5031C11.168 12.7562 11.2686 12.999 11.4477 13.178L14.3113 16.0416C14.4913 16.2155 14.7324 16.3117 14.9827 16.3095C15.233 16.3073 15.4724 16.207 15.6494 16.03C15.8264 15.853 15.9268 15.6136 15.9289 15.3633C15.9311 15.113 15.8349 14.8719 15.661 14.6919L13.0771 12.1079Z" fill="#ED2E3D"/>
</svg>
