<svg width="41" height="31" viewBox="0 0 41 31" fill="none" xmlns="http://www.w3.org/2000/svg">
<g clip-path="url(#clip0_7669_25442)">
<path d="M30.8134 12.3252H8.40381V30.9999H30.8134V12.3252Z" fill="white"/>
<path d="M19.609 29.8794C24.147 29.8794 27.8258 26.2006 27.8258 21.6625C27.8258 17.1245 24.147 13.4457 19.609 13.4457C15.0709 13.4457 11.3921 17.1245 11.3921 21.6625C11.3921 26.2006 15.0709 29.8794 19.609 29.8794Z" fill="#FCEBEC"/>
<path fill-rule="evenodd" clip-rule="evenodd" d="M27.4741 19.2059L19.9243 25.2336L27.0439 18.114C27.2121 18.4649 27.3563 18.8296 27.4741 19.2059Z" fill="#AD151D" fill-opacity="0.28"/>
<path fill-rule="evenodd" clip-rule="evenodd" d="M26.9669 16.1059C26.3895 15.5285 25.4533 15.5285 24.8759 16.1059L19.2367 21.7452L17.2701 19.7785C16.7269 19.2353 15.8461 19.2353 15.3029 19.7785C14.7597 20.3216 14.7597 21.2025 15.3029 21.7455L18.2306 24.6734C18.2562 24.7034 18.2833 24.7327 18.3117 24.7611C18.3424 24.7917 18.374 24.8209 18.4066 24.8481C18.936 25.3436 19.7583 25.3479 20.2927 24.8607C20.3305 24.8297 20.3673 24.7964 20.4025 24.7611L26.9669 18.1969C27.5443 17.6195 27.5443 16.6833 26.9669 16.1059Z" fill="url(#paint0_linear_7669_25442)"/>
<path d="M32.3669 19.1427C32.097 18.1881 30.8613 18.2818 30.8613 18.2818L30.8959 18.9447C31.6124 18.8198 32.0554 19.6633 32.0554 19.6633L32.3669 19.1427Z" fill="#E5343D"/>
<path d="M6.11991 21.1421C5.84993 20.1876 4.61426 20.2812 4.61426 20.2812L4.64888 20.9442C5.36535 20.8192 5.80839 21.6592 5.80839 21.6592L6.11991 21.1421Z" fill="#E0E0E0"/>
<path d="M20.5768 7.938C22.0133 8.37535 22.9063 6.71272 22.9063 6.71272L22.034 6.21289C21.6082 7.22991 20.1753 7.11189 20.1753 7.11189L20.5768 7.938Z" fill="#E0E0E0"/>
<path d="M12.6129 9.72571C11.9448 9.79512 11.8652 10.6386 11.8652 10.6386L12.3117 10.6906C12.3117 10.1978 12.9244 9.99298 12.9244 9.99298L12.6129 9.72571Z" fill="#E5343D"/>
<path d="M40.1436 15.8729C40.2406 15.2065 39.4478 14.9219 39.4478 14.9219L39.2852 15.3419C39.7629 15.4633 39.8043 16.109 39.8043 16.109L40.1436 15.8729Z" fill="#E0E0E0"/>
<path d="M16.5107 0.951059C16.6076 0.284623 15.815 0 15.815 0L15.6523 0.419994C16.13 0.54148 16.175 1.18709 16.175 1.18709L16.5107 0.951059Z" fill="#E5343D"/>
<path d="M0.00703991 11.7042C-0.114104 12.749 1.26694 13.0024 1.26694 13.0024L1.51615 12.3186C0.688908 12.2422 0.567763 11.2668 0.567763 11.2668L0.00703991 11.7042Z" fill="#E5343D"/>
<path d="M30.7292 7.91747C31.4008 7.95566 31.6154 7.13997 31.6154 7.13997L31.1827 7.01501C31.1031 7.50442 30.4663 7.60161 30.4663 7.60161L30.7292 7.91747Z" fill="#E5343D"/>
<path d="M34.3947 10.6597C34.3947 10.6909 34.1456 10.7152 33.841 10.7152C33.5364 10.7152 33.2871 10.6909 33.2871 10.6597C33.2871 10.6284 33.5364 10.6041 33.841 10.6041C34.1456 10.6041 34.3947 10.6284 34.3947 10.6597Z" fill="#E0E0E0"/>
<path d="M34.9791 9.14624C35.0103 9.14624 35.0346 9.39962 35.0346 9.70853C35.0346 10.0209 35.0103 10.2708 34.9791 10.2708C34.9479 10.2708 34.9238 10.0175 34.9238 9.70853C34.9272 9.39962 34.9515 9.14624 34.9791 9.14624Z" fill="#E0E0E0"/>
<path d="M35.606 10.6213C35.606 10.5901 35.8553 10.5658 36.1598 10.5658C36.4644 10.5658 36.7136 10.5901 36.7136 10.6213C36.7136 10.6526 36.4644 10.6769 36.1598 10.6769C35.8553 10.6769 35.606 10.6526 35.606 10.6213Z" fill="#E0E0E0"/>
<path d="M35.0172 12.1314C34.9862 12.1314 34.9619 11.878 34.9619 11.5691C34.9619 11.2567 34.9862 11.0068 35.0172 11.0068C35.0484 11.0068 35.0727 11.2602 35.0727 11.5691C35.0727 11.8815 35.0484 12.1314 35.0172 12.1314Z" fill="#E0E0E0"/>
<path d="M35.9139 11.4858C35.8898 11.5066 35.786 11.4164 35.675 11.2845C35.5678 11.1526 35.4986 11.0311 35.5193 11.0137C35.5436 10.9929 35.6474 11.0832 35.7581 11.2151C35.8689 11.3435 35.9382 11.465 35.9139 11.4858Z" fill="#E0E0E0"/>
<path d="M35.8616 9.77124C35.8824 9.79207 35.8097 9.90314 35.6954 10.0177C35.5813 10.1322 35.474 10.2086 35.4532 10.1878C35.4325 10.1669 35.5051 10.0559 35.6194 9.94133C35.7335 9.82678 35.8409 9.75042 35.8616 9.77124Z" fill="#E0E0E0"/>
<path d="M34.5914 10.2083C34.5705 10.2326 34.4702 10.1771 34.3628 10.0868C34.2556 9.99661 34.183 9.90635 34.2037 9.88206C34.2245 9.85776 34.3247 9.9133 34.4321 10.0036C34.5395 10.0938 34.6121 10.184 34.5914 10.2083Z" fill="#E0E0E0"/>
<path d="M34.5432 10.9615C34.564 10.9824 34.5018 11.09 34.3979 11.201C34.2941 11.3121 34.1936 11.3885 34.1729 11.3676C34.1522 11.3468 34.2144 11.2392 34.3182 11.1281C34.4187 11.0171 34.5225 10.9442 34.5432 10.9615Z" fill="#E0E0E0"/>
<path d="M4.24043 7.56335C4.24043 7.59459 3.99121 7.61889 3.68663 7.61889C3.38203 7.61889 3.13281 7.59459 3.13281 7.56335C3.13281 7.53211 3.38203 7.50781 3.68663 7.50781C3.99121 7.51129 4.24043 7.53558 4.24043 7.56335Z" fill="#E5343D"/>
<path d="M4.82832 6.05371C4.85949 6.05371 4.88371 6.30709 4.88371 6.61602C4.88371 6.92842 4.85949 7.17832 4.82832 7.17832C4.79717 7.17832 4.77295 6.92494 4.77295 6.61602C4.77295 6.30709 4.79717 6.05371 4.82832 6.05371Z" fill="#E5343D"/>
<path d="M5.45557 7.5288C5.45557 7.49756 5.70478 7.47327 6.00938 7.47327C6.31397 7.47327 6.56318 7.49756 6.56318 7.5288C6.56318 7.56003 6.31397 7.58434 6.00938 7.58434C5.70133 7.58087 5.45557 7.55657 5.45557 7.5288Z" fill="#E5343D"/>
<path d="M4.86691 9.03867C4.83576 9.03867 4.81152 8.78529 4.81152 8.47638C4.81152 8.16399 4.83576 7.91406 4.86691 7.91406C4.89806 7.91406 4.92228 8.16744 4.92228 8.47638C4.92228 8.78529 4.89806 9.03867 4.86691 9.03867Z" fill="#E5343D"/>
<path d="M5.7596 8.38948C5.73536 8.4103 5.63153 8.32005 5.52077 8.18815C5.41347 8.05625 5.34424 7.93477 5.36501 7.91742C5.38925 7.89658 5.49308 7.98683 5.60384 8.11873C5.7146 8.25063 5.78382 8.37211 5.7596 8.38948Z" fill="#E5343D"/>
<path d="M5.7108 6.67834C5.73156 6.69919 5.65888 6.81024 5.54465 6.92479C5.43043 7.03934 5.32313 7.11571 5.30236 7.09488C5.2816 7.07404 5.3543 6.96298 5.46851 6.84843C5.57927 6.73041 5.68658 6.65752 5.7108 6.67834Z" fill="#E5343D"/>
<path d="M4.44051 7.11579C4.41975 7.14009 4.31937 7.08457 4.21208 6.99432C4.10478 6.90406 4.0321 6.81382 4.05286 6.78953C4.07363 6.76523 4.17401 6.82077 4.28131 6.91101C4.3886 7.00126 4.45782 7.0915 4.44051 7.11579Z" fill="#E5343D"/>
<path d="M4.3885 7.86903C4.40926 7.88985 4.34696 7.99745 4.24311 8.10853C4.13928 8.21961 4.03891 8.29597 4.01814 8.27515C3.99737 8.2543 4.05967 8.1467 4.1635 8.03564C4.26735 7.92457 4.36773 7.84821 4.3885 7.86903Z" fill="#E5343D"/>
</g>
<defs>
<linearGradient id="paint0_linear_7669_25442" x1="26.9852" y1="16.247" x2="9.15085" y2="24.5572" gradientUnits="userSpaceOnUse">
<stop stop-color="#E5343D"/>
<stop offset="1" stop-color="#EC6225"/>
</linearGradient>
<clipPath id="clip0_7669_25442">
<rect width="40.1506" height="31" fill="white"/>
</clipPath>
</defs>
</svg>
