<svg width="16" height="16" viewBox="0 0 16 16" fill="none" xmlns="http://www.w3.org/2000/svg">
<path d="M15.5 8C15.5 12.1421 12.1421 15.5 8 15.5C3.85786 15.5 0.5 12.1421 0.5 8C0.5 3.85786 3.85786 0.5 8 0.5C12.1421 0.5 15.5 3.85786 15.5 8Z" stroke="black"/>
<path d="M11.964 6.05417L11.9641 6.05413C12.1861 5.83212 12.1861 5.47794 11.9641 5.25592C11.7421 5.03391 11.3879 5.03391 11.1659 5.25592L6.59214 9.82966L5.02087 8.25839C4.79886 8.03638 4.44468 8.03638 4.22266 8.25839C4.00065 8.48041 4.00065 8.83459 4.22266 9.0566L6.18834 11.0223C6.41035 11.2443 6.76919 11.2443 6.99121 11.0223C6.99122 11.0223 6.99123 11.0223 6.99124 11.0223L11.964 6.05417Z" fill="black"/>
</svg>
