<svg width="16" height="16" viewBox="0 0 16 16" fill="none" xmlns="http://www.w3.org/2000/svg">
<path fill-rule="evenodd" clip-rule="evenodd" d="M15 8C15 11.866 11.866 15 8 15C4.13401 15 1 11.866 1 8C1 4.13401 4.13401 1 8 1C11.866 1 15 4.13401 15 8ZM8 16C12.4183 16 16 12.4183 16 8C16 3.58172 12.4183 0 8 0C3.58172 0 0 3.58172 0 8C0 12.4183 3.58172 16 8 16ZM11.9641 6.05413L11.964 6.05417L6.99124 11.0223H6.99121C6.76919 11.2443 6.41035 11.2443 6.18834 11.0223L4.22266 9.0566C4.00065 8.83459 4.00065 8.48041 4.22266 8.25839C4.44468 8.03638 4.79886 8.03638 5.02087 8.25839L6.59214 9.82966L11.1659 5.25592C11.3879 5.03391 11.7421 5.03391 11.9641 5.25592C12.1861 5.47794 12.1861 5.83212 11.9641 6.05413Z" fill="black"/>
</svg>
