<svg width="24" height="14" viewBox="0 0 24 14" fill="none" xmlns="http://www.w3.org/2000/svg">
<path d="M22.6411 4.31195L23.9945 6.99932L21.1494 9.68799L22.6411 4.31195Z" fill="#008C44"/>
<path d="M21.7037 4.31195L23.0551 6.99932L20.2119 9.68799L21.7037 4.31195Z" fill="#F47920"/>
<path d="M0.00537109 8.71021L1.35477 3.84865H3.51211C4.18634 3.84865 4.63673 3.95538 4.86587 4.17534C5.09336 4.39352 5.13718 4.74966 5.00005 5.25024C4.91711 5.54512 4.79106 5.79264 4.61788 5.9882C4.44611 6.18412 4.21956 6.33904 3.94059 6.45296C4.17727 6.50986 4.32783 6.62284 4.39533 6.79225C4.46249 6.96167 4.45471 7.20871 4.37319 7.53257L4.20908 8.21163L4.2086 8.23001C4.16124 8.42016 4.17526 8.52194 4.25243 8.53019L4.20271 8.71021H2.74328C2.74823 8.59581 2.7573 8.49355 2.76696 8.40767C2.77756 8.31978 2.79064 8.25169 2.8036 8.20492L2.93967 7.71942C3.00824 7.46695 3.01248 7.29083 2.94886 7.18939C2.88465 7.08525 2.74092 7.034 2.51402 7.034H1.9007L1.433 8.71021H0.00537109ZM2.20418 5.93848H2.86109C3.09129 5.93848 3.26117 5.90562 3.36591 5.83764C3.47111 5.76907 3.54922 5.65327 3.59505 5.48574C3.64253 5.31539 3.63086 5.19663 3.56277 5.12913C3.49479 5.06056 3.3321 5.02722 3.07633 5.02722H2.45712L2.20418 5.93848Z" fill="#1B3281"/>
<path d="M9.00519 5.12275L8.0104 8.71019H6.80155L6.95011 8.18464C6.73734 8.39364 6.51963 8.55233 6.30015 8.65376C6.08244 8.75696 5.85271 8.80774 5.61084 8.80774C5.41092 8.80774 5.23927 8.77145 5.10108 8.69947C4.96124 8.62773 4.85709 8.51863 4.787 8.37479C4.72479 8.24885 4.6977 8.09334 4.7083 7.90755C4.71949 7.72471 4.78405 7.41628 4.90375 6.98439L5.41928 5.12275H6.74159L6.22711 6.97567C6.15194 7.24687 6.13404 7.43749 6.17068 7.54128C6.20885 7.64601 6.31075 7.70009 6.47616 7.70009C6.64274 7.70009 6.78282 7.63977 6.89851 7.51666C7.01585 7.39461 7.10644 7.21259 7.17454 6.97037L7.68477 5.12275H9.00519Z" fill="#1B3281"/>
<path d="M8.52588 8.71021L9.87386 3.84865H11.7282C12.1374 3.84865 12.454 3.8728 12.6799 3.92581C12.9052 3.97659 13.082 4.05906 13.2133 4.17534C13.3779 4.32743 13.4787 4.51569 13.5202 4.74153C13.5592 4.96737 13.5361 5.23044 13.4507 5.53934C13.2997 6.0828 13.0349 6.49926 12.6577 6.79025C12.2793 7.07747 11.8111 7.22179 11.2524 7.22179H10.3846L9.97235 8.71021H8.52588ZM10.7131 6.0345H11.1794C11.4809 6.0345 11.6929 5.99727 11.817 5.92541C11.9372 5.8526 12.0226 5.72324 12.0747 5.53934C12.1267 5.35297 12.1133 5.22267 12.0346 5.14986C11.9589 5.07741 11.7653 5.04077 11.4556 5.04077H10.9902L10.7131 6.0345Z" fill="#1B3281"/>
<path d="M15.0058 8.71017L15.0193 8.36947C14.806 8.5291 14.5901 8.64974 14.373 8.72513C14.1568 8.80195 13.9266 8.84094 13.68 8.84094C13.3055 8.84094 13.0443 8.73915 12.8933 8.54218C12.7441 8.34484 12.7196 8.06151 12.8214 7.70007C12.9188 7.34334 13.0921 7.08074 13.3421 6.91286C13.5907 6.74298 14.0059 6.6214 14.5883 6.54364C14.6622 6.53163 14.7611 6.52197 14.8851 6.507C15.3157 6.45717 15.5574 6.34242 15.6095 6.15522C15.6366 6.05273 15.6201 5.97709 15.5565 5.93068C15.4951 5.88249 15.3804 5.85881 15.2147 5.85881C15.0772 5.85881 14.9666 5.88732 14.8759 5.94658C14.7853 6.00643 14.7177 6.09384 14.6718 6.21684H13.3827C13.499 5.81298 13.7369 5.50786 14.094 5.30381C14.4498 5.09623 14.9189 4.99632 15.4999 4.99632C15.7731 4.99632 16.0178 5.02189 16.2341 5.07738C16.4508 5.13051 16.6091 5.20626 16.7118 5.29792C16.8383 5.41231 16.9131 5.54273 16.9344 5.68693C16.959 5.83077 16.932 6.03694 16.8566 6.30673L16.3021 8.30679C16.2843 8.37229 16.2809 8.43073 16.2906 8.48386C16.3021 8.53452 16.3243 8.57787 16.3634 8.60886L16.3336 8.71017H15.0058ZM15.3272 7.10831C15.1868 7.16474 15.0043 7.21881 14.7775 7.27819C14.4214 7.37373 14.221 7.5012 14.1776 7.65895C14.1476 7.76039 14.1597 7.8385 14.2093 7.89787C14.2582 7.9543 14.3432 7.98281 14.4629 7.98281C14.6823 7.98281 14.8586 7.92732 14.9899 7.81776C15.1216 7.70678 15.2201 7.53254 15.2891 7.29221C15.3011 7.24108 15.3117 7.20432 15.3185 7.17687L15.3272 7.10831Z" fill="#1B3281"/>
<path d="M16.3438 10.1238L16.6372 9.06201H17.0156C17.142 9.06201 17.2415 9.03703 17.3119 8.99156C17.3834 8.94431 17.4321 8.86467 17.4601 8.75747C17.4741 8.71022 17.4827 8.66051 17.4886 8.60408C17.4924 8.54423 17.4924 8.48097 17.4886 8.40769L17.2867 5.12279H18.6251L18.6044 7.29945L19.7729 5.12279H21.0175L18.9518 8.69291C18.7174 9.09193 18.547 9.36607 18.4389 9.51569C18.3322 9.66343 18.2308 9.77829 18.1325 9.85605C18.005 9.96361 17.8627 10.0398 17.7091 10.0842C17.5551 10.1296 17.3206 10.1522 17.0055 10.1522C16.9148 10.1522 16.8104 10.1505 16.6975 10.1446C16.5855 10.1402 16.4659 10.1335 16.3438 10.1238Z" fill="#1B3281"/>
</svg>
