<svg width="16" height="16" viewBox="0 0 16 16" fill="none" xmlns="http://www.w3.org/2000/svg">
<path fill-rule="evenodd" clip-rule="evenodd" d="M16 8C16 12.4183 12.4183 16 8 16C3.58172 16 0 12.4183 0 8C0 3.58172 3.58172 0 8 0C12.4183 0 16 3.58172 16 8ZM8.70729 4.2094C9.00342 3.9302 9.48178 3.9302 9.7779 4.2094C10.0664 4.48143 10.074 4.9396 9.7779 5.21879L6.83181 7.99642L9.7779 10.7812C10.074 11.0604 10.074 11.5114 9.7779 11.7906C9.48178 12.0698 9.00342 12.0698 8.70729 11.7906L5.2221 8.5047C4.92597 8.2255 4.92597 7.7745 5.2221 7.4953L8.70729 4.2094Z" fill="black"/>
</svg>
