<svg width="28" height="28" viewBox="0 0 28 28" fill="none" xmlns="http://www.w3.org/2000/svg">
<g clip-path="url(#clip0_7620_23997)">
<path d="M14.0082 11.294C10.4974 7.78376 6.64789 5.94165 5.40955 7.17954C5.27367 7.32188 5.17368 7.4945 5.11786 7.68321L5.09793 7.66328L3.9153 12.5097L2.73766 17.3417L1.34169 23.0633L0.458008 26.6868L5.68992 24.707L12.3445 22.1891L17.6534 20.1803L17.6471 20.1739C17.8248 20.1173 17.9874 20.0211 18.1227 19.8927C19.361 18.6543 17.5189 14.8048 14.0082 11.294Z" fill="#DD1C4B"/>
<path d="M14.0082 11.2927C10.4976 7.78209 6.64791 5.93992 5.40974 7.1781C4.17156 8.41627 6.01373 12.2659 9.52434 15.7765C13.0349 19.2871 16.8846 21.1293 18.1228 19.8911C19.361 18.653 17.5188 14.8033 14.0082 11.2927Z" fill="#D1E3EE"/>
<path d="M17.1715 20.337C16.5376 20.3481 15.9087 20.2234 15.3271 19.9711L10.988 21.613L4.3311 24.1286L0.761478 25.4793L0.458008 26.7235L5.68992 24.7437L12.3445 22.2258L17.2168 20.3823L17.1715 20.337Z" fill="#B21D48"/>
<path d="M22.6524 16.7587C22.5982 16.7585 22.5444 16.7488 22.4934 16.7302C20.194 15.8687 17.7085 15.6272 15.2863 16.0299L13.6683 16.2994C13.4207 16.3347 13.1913 16.1626 13.156 15.915C13.1218 15.6757 13.2815 15.4518 13.5189 15.4062L15.1372 15.1345C17.7164 14.7059 20.3629 14.9629 22.8114 15.8795C23.0468 15.9641 23.1691 16.2235 23.0845 16.459C23.0191 16.6408 22.8457 16.7612 22.6524 16.7587Z" fill="#FFBF41"/>
<path d="M14.5001 14.041C14.25 14.0396 14.0483 13.8356 14.0498 13.5854C14.0508 13.4128 14.1499 13.2557 14.3053 13.1805L23.8171 8.65105C24.043 8.54348 24.3133 8.63939 24.4208 8.86529C24.5284 9.0912 24.4325 9.36149 24.2066 9.46906L14.6949 13.9985C14.6339 14.0269 14.5674 14.0415 14.5001 14.041Z" fill="#FFBF41"/>
<path d="M9.20313 13.1352C9.1434 13.1353 9.08423 13.1235 9.0292 13.1003C8.79831 13.004 8.68921 12.7388 8.78552 12.5079V12.5078L9.44409 10.9275C10.4574 8.50629 10.6936 5.83009 10.1203 3.26877C10.0616 3.0256 10.2111 2.7809 10.4542 2.72213C10.6974 2.66336 10.9421 2.81289 11.0008 3.056C11.0022 3.06138 11.0033 3.06676 11.0045 3.0722C11.6187 5.81594 11.3654 8.68271 10.2798 11.2763L9.62074 12.8566C9.55042 13.0252 9.38578 13.135 9.20313 13.1352Z" fill="#FFBF41"/>
<path d="M24.9171 18.5706C25.4174 18.5706 25.823 18.165 25.823 17.6647C25.823 17.1644 25.4174 16.7588 24.9171 16.7588C24.4168 16.7588 24.0112 17.1644 24.0112 17.6647C24.0112 18.165 24.4168 18.5706 24.9171 18.5706Z" fill="#D5557E"/>
<path d="M14.046 5.88818C14.5463 5.88818 14.9519 5.4826 14.9519 4.9823C14.9519 4.48199 14.5463 4.07642 14.046 4.07642C13.5457 4.07642 13.1401 4.48199 13.1401 4.9823C13.1401 5.4826 13.5457 5.88818 14.046 5.88818Z" fill="#DD95C1"/>
<path d="M9.96985 1.81176C9.46952 1.81176 9.06396 1.40621 9.06396 0.905881C9.06396 0.405551 9.46952 0 9.96985 0C10.4702 0 10.8757 0.405551 10.8757 0.905881C10.8757 1.40621 10.4702 1.81176 9.96985 1.81176Z" fill="#7FCCCB"/>
<path d="M22.6517 3.62359C22.4015 3.62359 22.1987 3.42079 22.1987 3.17065V2.71771C22.1987 2.46757 22.4015 2.26477 22.6517 2.26477C22.9018 2.26477 23.1046 2.46757 23.1046 2.71771V3.17065C23.1046 3.42079 22.9018 3.62359 22.6517 3.62359Z" fill="#2276BB"/>
<path d="M22.6517 1.35882C22.4015 1.35882 22.1987 1.15602 22.1987 0.905881V0.45294C22.1987 0.202804 22.4015 0 22.6517 0C22.9018 0 23.1046 0.202804 23.1046 0.45294V0.905881C23.1046 1.15602 22.9018 1.35882 22.6517 1.35882Z" fill="#2276BB"/>
<path d="M24.0109 2.26465H23.5579C23.3078 2.26465 23.105 2.06184 23.105 1.81171C23.105 1.56157 23.3078 1.35876 23.5579 1.35876H24.0109C24.261 1.35876 24.4638 1.56157 24.4638 1.81171C24.4638 2.06184 24.261 2.26465 24.0109 2.26465Z" fill="#2276BB"/>
<path d="M21.7462 2.26465H21.2933C21.0431 2.26465 20.8403 2.06184 20.8403 1.81171C20.8403 1.56157 21.0431 1.35876 21.2933 1.35876H21.7462C21.9963 1.35876 22.1992 1.56157 22.1992 1.81171C22.1992 2.06184 21.9963 2.26465 21.7462 2.26465Z" fill="#2276BB"/>
<path d="M4.05359 13.1353C4.00286 12.9415 3.95756 12.7458 3.91544 12.5465L2.73779 17.3785L2.82838 18.4832C3.02581 20.8384 4.03756 23.0513 5.68961 24.7415L12.3447 22.2258C12.3084 22.2145 12.2708 22.2064 12.2346 22.1941C8.19918 20.681 5.14902 17.3036 4.05359 13.1353Z" fill="white"/>
<path d="M12.3448 22.2258C12.3086 22.2145 12.271 22.2063 12.2347 22.1941C11.7988 22.0291 11.3718 21.8412 10.9556 21.6311L4.96143 23.899C5.18869 24.1937 5.43197 24.4757 5.69021 24.7437L12.3448 22.2258Z" fill="#F6F6E7"/>
<path d="M19.4817 5.42578V7.7H17.2075V5.42578H19.4817Z" fill="#C9DA53"/>
<path d="M11.3288 13.5882C11.0787 13.5881 10.8759 13.3853 10.876 13.1351C10.876 13.0068 10.9304 12.8846 11.0258 12.7987L15.5552 8.72224C15.7443 8.55856 16.0304 8.57923 16.1941 8.76839C16.3532 8.95228 16.3387 9.22903 16.1612 9.39531L11.6318 13.4718C11.5487 13.5467 11.4407 13.5881 11.3288 13.5882Z" fill="#FFBF41"/>
<path d="M24.4642 11.7764C24.214 11.7764 24.0112 11.5736 24.0112 11.3235V10.8705C24.0112 10.6204 24.214 10.4176 24.4642 10.4176C24.7143 10.4176 24.9171 10.6204 24.9171 10.8705V11.3235C24.9171 11.5736 24.7143 11.7764 24.4642 11.7764Z" fill="#FFDB43"/>
<path d="M26.0655 11.1129C25.9453 11.1132 25.8299 11.0654 25.7452 10.9802L25.425 10.6599C25.2512 10.48 25.2562 10.1932 25.4361 10.0195C25.6116 9.84996 25.8899 9.84996 26.0655 10.0195L26.3857 10.3397C26.5626 10.5166 26.5625 10.8034 26.3856 10.9803C26.3007 11.0651 26.1855 11.1129 26.0655 11.1129Z" fill="#FFDB43"/>
<path d="M26.7286 9.51172H26.2757C26.0256 9.51172 25.8228 9.30891 25.8228 9.05878C25.8228 8.80864 26.0256 8.60583 26.2757 8.60583H26.7286C26.9788 8.60583 27.1816 8.80864 27.1816 9.05878C27.1816 9.30891 26.9788 9.51172 26.7286 9.51172Z" fill="#FFDB43"/>
<path d="M25.7453 8.23083C25.4952 8.23077 25.2924 8.02797 25.2925 7.77777C25.2925 7.65769 25.3402 7.54253 25.4251 7.45766L25.7453 7.13743C25.9252 6.96361 26.2119 6.9686 26.3858 7.14853C26.5553 7.32404 26.5553 7.60232 26.3858 7.77789L26.0655 8.09812C25.9806 8.18304 25.8654 8.23083 25.7453 8.23083Z" fill="#FFDB43"/>
<path d="M24.4642 7.70001C24.214 7.70001 24.0112 7.4972 24.0112 7.24707V6.79413C24.0112 6.54399 24.214 6.34119 24.4642 6.34119C24.7143 6.34119 24.9171 6.54399 24.9171 6.79413V7.24707C24.9171 7.4972 24.7143 7.70001 24.4642 7.70001Z" fill="#FFDB43"/>
<path d="M23.1826 8.23079C23.0625 8.23079 22.9473 8.183 22.8624 8.09807L22.5422 7.77785C22.3684 7.59792 22.3734 7.31115 22.5533 7.13739C22.7288 6.96788 23.0071 6.96788 23.1826 7.13739L23.5029 7.45762C23.6798 7.63455 23.6797 7.92131 23.5028 8.09819C23.4179 8.18306 23.3027 8.23079 23.1826 8.23079Z" fill="#FFDB43"/>
<path d="M2.72271 0.452881L3.4225 1.87104L4.98741 2.09841L3.85506 3.20223L4.1223 4.7608L2.72271 4.02477L1.32312 4.7608L1.59036 3.20223L0.458008 2.09841L2.02292 1.87104L2.72271 0.452881Z" fill="#FFDB43"/>
<path d="M27.0382 24.5339C26.8228 23.7705 26.3268 23.1167 25.6495 22.7036L25.4629 22.4237C24.4166 20.8589 22.7712 19.795 20.9149 19.4827C20.6673 19.4474 20.4379 19.6195 20.4025 19.8672C20.3684 20.1064 20.5281 20.3304 20.7655 20.3759C22.1044 20.6032 23.3245 21.2834 24.2218 22.3028C23.4674 22.4385 22.8076 22.8916 22.4101 23.547C21.9223 24.4206 22.2351 25.5243 23.1087 26.0121C23.9824 26.4999 25.0861 26.1871 25.5739 25.3134C25.7602 24.9538 25.8608 24.5558 25.8678 24.1508C26.3498 24.8507 26.3883 25.7648 25.967 26.5029C25.8394 26.718 25.9104 26.9959 26.1255 27.1235C26.3406 27.2511 26.6185 27.1802 26.7461 26.965C26.7502 26.9581 26.7541 26.9512 26.7579 26.944C27.1694 26.2103 27.2703 25.3425 27.0382 24.5339ZM24.7839 24.8714C24.5422 25.3094 23.9911 25.4685 23.5531 25.2268C23.1151 24.985 22.956 24.434 23.1977 23.996C23.1991 23.9935 23.2005 23.991 23.2018 23.9886C23.4691 23.5509 23.92 23.2576 24.4284 23.1905C24.5071 23.1884 24.5851 23.2065 24.6549 23.2431C25.0371 23.4564 25.0575 24.3813 24.7839 24.8714Z" fill="#2BB3CE"/>
<path d="M17.453 20.7592C17.8156 20.7036 18.1517 20.5358 18.4141 20.2795C18.8634 19.8307 19.2498 18.9053 18.5382 17.0496C18.4534 16.8142 18.1939 16.6922 17.9586 16.7771C17.7232 16.8619 17.6012 17.1214 17.686 17.3567C17.6881 17.3625 17.6903 17.3682 17.6926 17.3739C18.1056 18.4519 18.1355 19.2763 17.7736 19.6386C17.3352 20.0762 16.2436 19.9394 14.8522 19.2735C12.9892 18.3065 11.2959 17.0429 9.83858 15.5323C6.29024 11.9839 4.82634 8.50217 5.73177 7.59674C6.02091 7.36869 6.39651 7.28104 6.75677 7.35759C7.00504 7.38816 7.23111 7.21163 7.26163 6.96336C7.2922 6.7151 7.11567 6.48902 6.8674 6.4585C6.8597 6.45754 6.85195 6.45681 6.84419 6.45624C6.21443 6.34482 5.56831 6.52843 5.09131 6.95447C3.43219 8.61586 5.96866 12.9437 9.19993 16.1732C10.7296 17.7563 12.5072 19.0795 14.4626 20.0907C14.817 20.2602 15.182 20.4062 15.5556 20.5277L12.3352 21.7457C8.46775 20.2709 5.54821 17.0225 4.49298 13.0203C4.38427 12.6058 4.29549 12.1823 4.22891 11.7611C4.19721 11.5129 3.97034 11.3375 3.72224 11.3692C3.47409 11.4009 3.29863 11.6277 3.33033 11.8758C3.33141 11.8844 3.33277 11.8929 3.33435 11.9014C3.40547 12.3544 3.50058 12.8073 3.61699 13.2503C4.65954 17.202 7.40617 20.4849 11.1118 22.2085L5.81465 24.2128C5.79054 24.1722 5.75991 24.1357 5.72407 24.105C4.37793 23.0243 3.53336 21.4393 3.38735 19.7192L3.17582 17.1741C3.15918 16.9275 2.94579 16.7411 2.69922 16.7577C2.69503 16.758 2.69084 16.7584 2.68665 16.7588C2.43736 16.7794 2.25205 16.9982 2.27266 17.2475L2.48464 19.7935C2.6443 21.6319 3.50183 23.3394 4.88114 24.5652L1.10317 25.9956L1.78258 23.2073C1.84186 22.9641 1.69284 22.719 1.44967 22.6597C1.2065 22.6004 0.961343 22.7494 0.902064 22.9926L0.0183772 26.6161C-0.0409013 26.8591 0.108059 27.1042 0.351062 27.1635C0.386165 27.1721 0.422117 27.1765 0.458182 27.1765C0.512932 27.1764 0.567228 27.1666 0.618523 27.1475L17.3773 20.8063C17.4042 20.7933 17.4295 20.7775 17.453 20.7592Z" fill="black"/>
<path d="M15.138 15.1364L13.5201 15.4082C13.2723 15.4426 13.0993 15.6713 13.1338 15.9191C13.1682 16.1669 13.3969 16.3399 13.6447 16.3054C13.6529 16.3043 13.661 16.3029 13.6691 16.3014L15.287 16.0319C17.7094 15.6291 20.195 15.8707 22.4946 16.7321C22.5452 16.7501 22.5986 16.7591 22.6522 16.7588C22.9024 16.7592 23.1055 16.5568 23.1059 16.3066C23.1063 16.1172 22.9887 15.9476 22.8112 15.8815C20.363 14.965 17.7168 14.7081 15.138 15.1364Z" fill="black"/>
<path d="M14.0915 13.783C14.199 14.0087 14.469 14.1045 14.6948 13.9972L24.2066 9.46784C24.4313 9.35795 24.5243 9.08663 24.4144 8.86192C24.3062 8.64071 24.041 8.54645 23.8175 8.64983L14.3057 13.1792C14.0799 13.2868 13.9839 13.557 14.0914 13.7829C14.0914 13.7829 14.0915 13.7829 14.0915 13.783Z" fill="black"/>
<path d="M9.03002 13.1004C9.08511 13.1236 9.14422 13.1354 9.20395 13.1353C9.38677 13.1353 9.55164 13.0255 9.62202 12.8568L10.2806 11.2783C11.3665 8.68473 11.6197 5.8179 11.0053 3.07416C10.9555 2.829 10.7164 2.67064 10.4712 2.72047C10.2261 2.77029 10.0677 3.00939 10.1175 3.25454C10.1186 3.25998 10.1199 3.26535 10.1212 3.27073C10.6949 5.832 10.4587 8.50825 9.44537 10.9295L8.78634 12.5098C8.69123 12.7402 8.80016 13.0041 9.03002 13.1004Z" fill="black"/>
<path d="M23.5581 17.6647C23.5581 18.4152 24.1665 19.0236 24.9169 19.0236C25.6674 19.0236 26.2757 18.4152 26.2757 17.6647C26.2757 16.9143 25.6674 16.3059 24.9169 16.3059C24.1665 16.3059 23.5581 16.9143 23.5581 17.6647ZM25.3699 17.6647C25.3699 17.9149 25.1671 18.1177 24.9169 18.1177C24.6668 18.1177 24.464 17.9149 24.464 17.6647C24.464 17.4146 24.6668 17.2118 24.9169 17.2118C25.1671 17.2118 25.3699 17.4146 25.3699 17.6647Z" fill="black"/>
<path d="M15.4051 4.98236C15.4051 4.23189 14.7968 3.62354 14.0463 3.62354C13.2959 3.62354 12.6875 4.23189 12.6875 4.98236C12.6875 5.73282 13.2959 6.34118 14.0463 6.34118C14.7968 6.34118 15.4051 5.73282 15.4051 4.98236ZM13.5934 4.98236C13.5934 4.73222 13.7962 4.52942 14.0463 4.52942C14.2965 4.52942 14.4993 4.73222 14.4993 4.98236C14.4993 5.23249 14.2965 5.4353 14.0463 5.4353C13.7962 5.4353 13.5934 5.23249 13.5934 4.98236Z" fill="black"/>
<path d="M9.96985 1.81176C10.4701 1.81176 10.8757 1.40618 10.8757 0.905881C10.8757 0.405577 10.4701 0 9.96985 0C9.46954 0 9.06396 0.405577 9.06396 0.905881C9.06396 1.40618 9.46954 1.81176 9.96985 1.81176Z" fill="black"/>
<path d="M22.1992 3.17065C22.1992 3.42079 22.402 3.62359 22.6522 3.62359C22.9023 3.62359 23.1051 3.42079 23.1051 3.17065V2.71771C23.1051 2.46757 22.9023 2.26477 22.6522 2.26477C22.402 2.26477 22.1992 2.46757 22.1992 2.71771V3.17065Z" fill="black"/>
<path d="M22.6522 0C22.402 0 22.1992 0.202804 22.1992 0.45294V0.905881C22.1992 1.15602 22.402 1.35882 22.6522 1.35882C22.9023 1.35882 23.1051 1.15602 23.1051 0.905881V0.45294C23.1051 0.202804 22.9023 0 22.6522 0Z" fill="black"/>
<path d="M24.0113 1.35876H23.5584C23.3083 1.35876 23.1055 1.56157 23.1055 1.81171C23.1055 2.06184 23.3083 2.26465 23.5584 2.26465H24.0113C24.2615 2.26465 24.4643 2.06184 24.4643 1.81171C24.4643 1.56157 24.2615 1.35876 24.0113 1.35876Z" fill="black"/>
<path d="M21.7462 1.35876H21.2933C21.0431 1.35876 20.8403 1.56157 20.8403 1.81171C20.8403 2.06184 21.0431 2.26465 21.2933 2.26465H21.7462C21.9963 2.26465 22.1992 2.06184 22.1992 1.81171C22.1992 1.56157 21.9963 1.35876 21.7462 1.35876Z" fill="black"/>
<path d="M19.4817 8.15287C19.7318 8.15287 19.9346 7.95007 19.9346 7.69993V5.42572C19.9346 5.17558 19.7318 4.97278 19.4817 4.97278H17.2088C16.9587 4.97278 16.7559 5.17558 16.7559 5.42572V7.69993C16.7559 7.95007 16.9587 8.15287 17.2088 8.15287H19.4817ZM17.6604 5.87866H19.0287V7.24699H17.6617L17.6604 5.87866Z" fill="black"/>
<path d="M10.993 13.4383C11.1603 13.6243 11.4467 13.6394 11.6327 13.4721C11.6328 13.472 11.6329 13.4719 11.633 13.4718L16.1624 9.39533C16.345 9.22429 16.3544 8.93769 16.1833 8.7551C16.017 8.57761 15.7403 8.56311 15.5564 8.72226L11.027 12.7987C10.8411 12.966 10.8258 13.2523 10.993 13.4383Z" fill="black"/>
<path d="M24.9171 11.3235V10.8705C24.9171 10.6204 24.7143 10.4176 24.4642 10.4176C24.214 10.4176 24.0112 10.6204 24.0112 10.8705V11.3235C24.0112 11.5736 24.214 11.7764 24.4642 11.7764C24.7143 11.7764 24.9171 11.5736 24.9171 11.3235Z" fill="black"/>
<path d="M25.426 10.66L25.7462 10.9802C25.9261 11.154 26.2128 11.149 26.3866 10.9691C26.5562 10.7936 26.5562 10.5153 26.3866 10.3397L26.0664 10.0195C25.8865 9.84569 25.5998 9.85068 25.426 10.0306C25.2564 10.2062 25.2564 10.4845 25.426 10.66Z" fill="black"/>
<path d="M26.7286 8.60583H26.2757C26.0256 8.60583 25.8228 8.80864 25.8228 9.05878C25.8228 9.30891 26.0256 9.51172 26.2757 9.51172H26.7286C26.9788 9.51172 27.1816 9.30891 27.1816 9.05878C27.1816 8.80864 26.9788 8.60583 26.7286 8.60583Z" fill="black"/>
<path d="M25.7463 8.23091C25.8664 8.23091 25.9816 8.18312 26.0665 8.0982L26.3868 7.77797C26.5605 7.59804 26.5556 7.31127 26.3757 7.13751C26.2002 6.968 25.9219 6.968 25.7463 7.13751L25.4261 7.45774C25.2492 7.63467 25.2493 7.92144 25.4262 8.09831C25.5111 8.18318 25.6262 8.23091 25.7463 8.23091Z" fill="black"/>
<path d="M24.4642 6.34119C24.214 6.34119 24.0112 6.54399 24.0112 6.79413V7.24707C24.0112 7.4972 24.214 7.70001 24.4642 7.70001C24.7143 7.70001 24.9171 7.4972 24.9171 7.24707V6.79413C24.9171 6.54399 24.7143 6.34119 24.4642 6.34119Z" fill="black"/>
<path d="M23.1841 7.13743C23.0042 6.96361 22.7175 6.9686 22.5436 7.14853C22.3741 7.32404 22.3741 7.60232 22.5436 7.77789L22.8639 8.09812C23.0438 8.27193 23.3305 8.26695 23.5043 8.08702C23.6738 7.9115 23.6738 7.63323 23.5043 7.45766L23.1841 7.13743Z" fill="black"/>
<path d="M5.41971 1.95847C5.36632 1.79451 5.22444 1.6751 5.05373 1.65047L3.72481 1.45707L3.13055 0.252699C2.9984 0.0283239 2.70937 -0.0464678 2.485 0.0856775C2.41604 0.126272 2.35857 0.183739 2.31797 0.252699L1.72372 1.45707L0.394336 1.65047C0.146804 1.68665 -0.024521 1.91663 0.0116576 2.16416C0.0260385 2.26245 0.072295 2.35332 0.143407 2.42274L1.105 3.36032L0.878529 4.68427C0.83533 4.93067 1.00003 5.1654 1.24643 5.2086C1.34506 5.22587 1.44663 5.21002 1.53529 5.16348L2.7229 4.53661L3.91187 5.16167C4.1333 5.27807 4.40716 5.19298 4.52357 4.97154C4.56994 4.88339 4.5859 4.78244 4.56909 4.68427L4.34262 3.36032L5.30466 2.42274C5.42826 2.30248 5.47287 2.12249 5.41971 1.95847ZM3.54046 2.87794C3.43379 2.98183 3.38504 3.13153 3.41001 3.27834L3.52234 3.93284L2.93488 3.62348C2.8029 3.55407 2.64517 3.55407 2.51319 3.62348L1.92437 3.93239L2.03715 3.27789C2.06218 3.13142 2.01377 2.98195 1.90761 2.87794L1.43293 2.41458L2.08879 2.31901C2.2365 2.29772 2.36423 2.20504 2.4303 2.07125L2.7229 1.47654L3.01641 2.07125C3.08231 2.20482 3.20964 2.29744 3.35702 2.31901L4.01333 2.41458L3.54046 2.87794Z" fill="black"/>
<path d="M25.6512 22.7037L25.4646 22.4238C24.4178 20.8593 22.7724 19.7955 20.9162 19.4828C20.6706 19.4349 20.4328 19.5952 20.3849 19.8407C20.337 20.0863 20.4973 20.3241 20.7428 20.372C20.7509 20.3735 20.759 20.3749 20.7672 20.376C22.1059 20.6032 23.326 21.2834 24.2231 22.3028C23.4688 22.439 22.8092 22.892 22.4113 23.5471C21.9235 24.4208 22.2364 25.5246 23.1102 26.0124C23.984 26.5002 25.0878 26.1873 25.5756 25.3135C25.761 24.9536 25.8611 24.5557 25.8682 24.1508C26.0001 24.3443 26.1014 24.557 26.1685 24.7813C26.3336 25.3589 26.2612 25.9786 25.9674 26.5025C25.8397 26.7176 25.9107 26.9955 26.1258 27.1231C26.341 27.2508 26.6189 27.1798 26.7465 26.9647C26.7506 26.9578 26.7545 26.9508 26.7582 26.9437C27.5867 25.4622 27.0985 23.5909 25.6517 22.7032L25.6512 22.7037ZM24.7856 24.8715C24.542 25.3084 23.9902 25.4651 23.5532 25.2214C23.3433 25.1043 23.1884 24.9085 23.1229 24.6772C23.0565 24.4461 23.0856 24.1981 23.2035 23.9887C23.4707 23.5509 23.9216 23.2575 24.4301 23.1906C24.5088 23.1885 24.5868 23.2066 24.6566 23.2431C25.0384 23.4565 25.0588 24.3814 24.7856 24.8715Z" fill="black"/>
</g>
<defs>
<clipPath id="clip0_7620_23997">
<rect width="27.187" height="27.187" fill="white"/>
</clipPath>
</defs>
</svg>
