<svg width="16" height="16" viewBox="0 0 16 16" fill="none" xmlns="http://www.w3.org/2000/svg">
<path d="M8 16C12.4183 16 16 12.4183 16 8C16 3.58172 12.4183 0 8 0C3.58172 0 0 3.58172 0 8C0 12.4183 3.58172 16 8 16Z" fill="#DADADA"/>
<path d="M9.7779 4.2094C9.48178 3.9302 9.00342 3.9302 8.70729 4.2094L5.2221 7.4953C4.92597 7.7745 4.92597 8.2255 5.2221 8.5047L8.70729 11.7906C9.00342 12.0698 9.48178 12.0698 9.7779 11.7906C10.074 11.5114 10.074 11.0604 9.7779 10.7812L6.83181 7.99642L9.7779 5.21879C10.074 4.9396 10.0664 4.48143 9.7779 4.2094Z" fill="white"/>
</svg>
