<svg width="18" height="18" viewBox="0 0 18 18" fill="none" xmlns="http://www.w3.org/2000/svg">
<path d="M18 9C18 13.9706 13.9706 18 9 18C4.02944 18 0 13.9706 0 9C0 4.02944 4.02944 0 9 0C13.9706 0 18 4.02944 18 9ZM13.4599 6.81089L13.4598 6.81094L7.86545 12.4001H7.86542C7.61564 12.6499 7.21195 12.6499 6.96219 12.4001L4.7508 10.1887C4.50104 9.93891 4.50104 9.54046 4.7508 9.29069C5.00057 9.04092 5.39902 9.04092 5.64878 9.29069L7.41646 11.0584L12.5619 5.91291C12.8117 5.66315 13.2102 5.66315 13.4599 5.91291C13.7097 6.16268 13.7097 6.56113 13.4599 6.81089Z"/>
</svg>
