<svg width="24" height="24" viewBox="0 0 24 24" fill="none" xmlns="http://www.w3.org/2000/svg">
<path d="M18.0115 10.2615C18.0118 9.2725 17.7681 8.29875 17.302 7.42651C16.836 6.55427 16.1619 5.81048 15.3396 5.26108C14.5173 4.71167 13.5722 4.37362 12.5879 4.27688C11.6037 4.18014 10.6109 4.32771 9.69733 4.7065C8.78379 5.08528 7.97782 5.6836 7.35084 6.4484C6.72386 7.21321 6.29524 8.12088 6.10298 9.09096C5.91072 10.061 5.96075 11.0636 6.24864 12.0097C6.53653 12.9558 7.05339 13.8163 7.7534 14.5149C8.29689 15.0454 8.73017 15.678 9.02833 16.3765C9.32649 17.075 9.48365 17.8255 9.49078 18.585V18.7387H14.509V18.5844C14.5042 17.8403 14.6491 17.1028 14.9351 16.4159C15.2212 15.7289 15.6425 15.1065 16.174 14.5858C16.7559 14.026 17.2187 13.3544 17.5345 12.6113C17.8502 11.8682 18.0125 11.0689 18.0115 10.2615V10.2615Z" fill="#FBD62E"/>
<path d="M16.8471 9.96914C16.7672 9.96906 16.6902 9.93991 16.6303 9.88715C16.5705 9.83438 16.5319 9.76162 16.5217 9.68246C16.4833 9.37901 16.4141 9.08024 16.3155 8.79071C16.2873 8.70836 16.2931 8.6182 16.3314 8.54007C16.3697 8.46193 16.4375 8.40223 16.5199 8.37408C16.6022 8.34593 16.6924 8.35165 16.7705 8.38998C16.8486 8.42831 16.9083 8.49611 16.9365 8.57846C17.0496 8.91009 17.1288 9.25234 17.1729 9.59996C17.1839 9.68628 17.1601 9.77342 17.1068 9.8422C17.0534 9.91097 16.975 9.95576 16.8887 9.96671C16.8749 9.96844 16.861 9.96925 16.8471 9.96914Z" fill="#FD9600"/>
<path d="M13.4684 12.4377C13.2323 12.438 13.006 12.532 12.839 12.6989C12.672 12.8659 12.5781 13.0923 12.5778 13.3284V13.5627H11.4219V13.3284C11.4219 13.1522 11.3696 12.98 11.2718 12.8336C11.1739 12.6871 11.0348 12.5729 10.8721 12.5055C10.7093 12.4381 10.5303 12.4205 10.3575 12.4549C10.1847 12.4892 10.026 12.574 9.90148 12.6986C9.77693 12.8232 9.6921 12.9819 9.65774 13.1546C9.62337 13.3274 9.64101 13.5065 9.70842 13.6692C9.77583 13.8319 9.88998 13.971 10.0364 14.0689C10.1829 14.1668 10.3551 14.219 10.5313 14.219H10.7656V19.2839C10.7656 19.371 10.8002 19.4544 10.8617 19.516C10.9233 19.5775 11.0067 19.6121 11.0938 19.6121C11.1808 19.6121 11.2642 19.5775 11.3258 19.516C11.3873 19.4544 11.4219 19.371 11.4219 19.2839V14.219H12.5778V19.2839C12.5778 19.371 12.6124 19.4544 12.6739 19.516C12.7355 19.5775 12.8189 19.6121 12.9059 19.6121C12.993 19.6121 13.0764 19.5775 13.138 19.516C13.1995 19.4544 13.2341 19.371 13.2341 19.2839V14.219H13.4684C13.7047 14.219 13.9312 14.1252 14.0982 13.9581C14.2652 13.7911 14.3591 13.5646 14.3591 13.3284C14.3591 13.0922 14.2652 12.8656 14.0982 12.6986C13.9312 12.5316 13.7047 12.4377 13.4684 12.4377V12.4377ZM10.2969 13.3284C10.2969 13.2662 10.3216 13.2066 10.3655 13.1626C10.4095 13.1187 10.4691 13.094 10.5313 13.094C10.5934 13.094 10.653 13.1187 10.697 13.1626C10.7409 13.2066 10.7656 13.2662 10.7656 13.3284V13.5627H10.5313C10.4691 13.5626 10.4096 13.5379 10.3656 13.494C10.3217 13.4501 10.297 13.3905 10.2969 13.3284ZM13.4684 13.5627H13.2341V13.3284C13.2341 13.282 13.2478 13.2367 13.2736 13.1982C13.2993 13.1596 13.3359 13.1296 13.3788 13.1118C13.4216 13.0941 13.4687 13.0895 13.5142 13.0985C13.5596 13.1075 13.6014 13.1299 13.6342 13.1626C13.6669 13.1954 13.6893 13.2372 13.6983 13.2826C13.7074 13.3281 13.7027 13.3752 13.685 13.4181C13.6672 13.4609 13.6372 13.4975 13.5987 13.5232C13.5601 13.549 13.5148 13.5627 13.4684 13.5627Z" fill="#FD9600"/>
<path d="M9.49121 21.2578H14.5095V21.6562C14.5095 21.9546 14.3909 22.2408 14.18 22.4517C13.969 22.6627 13.6828 22.7812 13.3845 22.7812H10.6162C10.3178 22.7812 10.0317 22.6627 9.82072 22.4517C9.60974 22.2408 9.49121 21.9546 9.49121 21.6562V21.2578V21.2578Z" fill="#385B60"/>
<path d="M14.6605 20.5974H9.33984C9.02918 20.5974 8.77734 20.8493 8.77734 21.1599C8.77734 21.4706 9.02918 21.7224 9.33984 21.7224H14.6605C14.9712 21.7224 15.223 21.4706 15.223 21.1599C15.223 20.8493 14.9712 20.5974 14.6605 20.5974Z" fill="#537980"/>
<path d="M14.6605 19.4641H9.33984C9.02918 19.4641 8.77734 19.716 8.77734 20.0266C8.77734 20.3373 9.02918 20.5891 9.33984 20.5891H14.6605C14.9712 20.5891 15.223 20.3373 15.223 20.0266C15.223 19.716 14.9712 19.4641 14.6605 19.4641Z" fill="#385B60"/>
<path d="M14.6605 18.3306H9.33984C9.02918 18.3306 8.77734 18.5824 8.77734 18.8931C8.77734 19.2037 9.02918 19.4556 9.33984 19.4556H14.6605C14.9712 19.4556 15.223 19.2037 15.223 18.8931C15.223 18.5824 14.9712 18.3306 14.6605 18.3306Z" fill="#537980"/>
<path d="M12 3.04688C11.913 3.04683 11.8296 3.01224 11.768 2.95071C11.7065 2.88919 11.6719 2.80576 11.6719 2.71875V1.21875C11.6719 1.13173 11.7064 1.04827 11.768 0.986731C11.8295 0.925195 11.913 0.890625 12 0.890625C12.087 0.890625 12.1705 0.925195 12.232 0.986731C12.2936 1.04827 12.3281 1.13173 12.3281 1.21875V2.71875C12.3281 2.80576 12.2935 2.88919 12.232 2.95071C12.1704 3.01224 12.087 3.04683 12 3.04688V3.04688Z" fill="#FBD62E"/>
<path d="M8.23135 4.05718C8.17368 4.05725 8.11701 4.0421 8.06707 4.01326C8.01713 3.98442 7.97568 3.94291 7.94691 3.89293L7.19691 2.59393C7.17503 2.5566 7.16074 2.5153 7.15488 2.47243C7.14902 2.42956 7.15169 2.38595 7.16276 2.34411C7.17382 2.30227 7.19304 2.26304 7.21933 2.22866C7.24561 2.19429 7.27844 2.16545 7.31591 2.14382C7.35339 2.12218 7.39477 2.10817 7.43769 2.10259C7.4806 2.09701 7.52419 2.09998 7.56595 2.11132C7.60771 2.12265 7.64682 2.14214 7.68102 2.16865C7.71522 2.19517 7.74384 2.22818 7.76523 2.2658L8.51523 3.5648C8.544 3.61468 8.55915 3.67124 8.55916 3.72882C8.55917 3.7864 8.54403 3.84297 8.51527 3.89285C8.48651 3.94273 8.44514 3.98418 8.39531 4.01302C8.34547 4.04186 8.28893 4.05709 8.23135 4.05718Z" fill="#FBD62E"/>
<path d="M5.47043 6.81661C5.41294 6.8166 5.35647 6.8014 5.30674 6.77255L4.00774 6.02255C3.97013 6.00116 3.93711 5.97254 3.9106 5.93834C3.88408 5.90414 3.8646 5.86504 3.85326 5.82328C3.84192 5.78151 3.83896 5.73792 3.84453 5.69501C3.85011 5.6521 3.86412 5.61071 3.88576 5.57324C3.9074 5.53576 3.93623 5.50294 3.97061 5.47665C4.00498 5.45037 4.04422 5.43114 4.08605 5.42008C4.12789 5.40902 4.1715 5.40634 4.21437 5.4122C4.25725 5.41807 4.29854 5.43235 4.33587 5.45424L5.63487 6.20424C5.69735 6.24044 5.74615 6.29624 5.77371 6.36299C5.80127 6.42973 5.80606 6.5037 5.78733 6.57344C5.7686 6.64318 5.72741 6.70481 5.67012 6.74877C5.61283 6.79273 5.54264 6.81657 5.47043 6.81661V6.81661Z" fill="#FBD62E"/>
<path d="M4.46094 10.5862H2.96094C2.87391 10.5862 2.79045 10.5516 2.72892 10.4901C2.66738 10.4285 2.63281 10.3451 2.63281 10.2581C2.63281 10.171 2.66738 10.0876 2.72892 10.026C2.79045 9.9645 2.87391 9.92993 2.96094 9.92993H4.46094C4.54796 9.92993 4.63142 9.9645 4.69296 10.026C4.75449 10.0876 4.78906 10.171 4.78906 10.2581C4.78906 10.3451 4.75449 10.4285 4.69296 10.4901C4.63142 10.5516 4.54796 10.5862 4.46094 10.5862V10.5862Z" fill="#FBD62E"/>
<path d="M4.17221 15.1057C4.09994 15.1058 4.02966 15.082 3.97229 15.038C3.91492 14.9941 3.87368 14.9324 3.85495 14.8626C3.83623 14.7928 3.84108 14.7187 3.86874 14.652C3.89641 14.5852 3.94535 14.5294 4.00796 14.4933L5.30696 13.7433C5.38228 13.7005 5.47149 13.6892 5.55511 13.7119C5.63873 13.7346 5.70998 13.7895 5.7533 13.8645C5.79663 13.9395 5.80851 14.0287 5.78636 14.1124C5.76422 14.1962 5.70983 14.2678 5.63509 14.3116L4.33609 15.0616C4.28628 15.0905 4.22976 15.1057 4.17221 15.1057V15.1057Z" fill="#FBD62E"/>
<path d="M15.7687 4.05718C15.7111 4.05709 15.6546 4.04186 15.6048 4.01302C15.5549 3.98418 15.5136 3.94273 15.4848 3.89285C15.456 3.84297 15.4409 3.7864 15.4409 3.72882C15.4409 3.67124 15.4561 3.61468 15.4848 3.5648L16.2349 2.2658C16.2562 2.22818 16.2849 2.19517 16.3191 2.16865C16.3533 2.14214 16.3924 2.12265 16.4341 2.11132C16.4759 2.09998 16.5195 2.09701 16.5624 2.10259C16.6053 2.10817 16.6467 2.12218 16.6842 2.14382C16.7216 2.16545 16.7545 2.19429 16.7808 2.22866C16.807 2.26304 16.8263 2.30227 16.8373 2.34411C16.8484 2.38595 16.8511 2.42956 16.8452 2.47243C16.8393 2.5153 16.8251 2.5566 16.8032 2.59393L16.0532 3.89293C16.0244 3.94291 15.9829 3.98442 15.933 4.01326C15.8831 4.0421 15.8264 4.05725 15.7687 4.05718Z" fill="#FBD62E"/>
<path d="M18.5298 6.81661C18.4576 6.81657 18.3874 6.79273 18.3301 6.74877C18.2728 6.70481 18.2316 6.64318 18.2129 6.57344C18.1942 6.5037 18.199 6.42973 18.2265 6.36299C18.2541 6.29624 18.3029 6.24044 18.3654 6.20424L19.6644 5.45424C19.7017 5.43235 19.743 5.41807 19.7858 5.4122C19.8287 5.40634 19.8723 5.40902 19.9142 5.42008C19.956 5.43114 19.9952 5.45037 20.0296 5.47665C20.064 5.50294 20.0928 5.53576 20.1145 5.57324C20.1361 5.61071 20.1501 5.6521 20.1557 5.69501C20.1613 5.73792 20.1583 5.78151 20.147 5.82328C20.1356 5.86504 20.1161 5.90414 20.0896 5.93834C20.0631 5.97254 20.0301 6.00116 19.9925 6.02255L18.6935 6.77255C18.6438 6.8014 18.5873 6.8166 18.5298 6.81661V6.81661Z" fill="#FBD62E"/>
<path d="M21.0396 10.5862H19.5396C19.4525 10.5862 19.3691 10.5516 19.3075 10.4901C19.246 10.4285 19.2114 10.3451 19.2114 10.2581C19.2114 10.171 19.246 10.0876 19.3075 10.026C19.3691 9.9645 19.4525 9.92993 19.5396 9.92993H21.0396C21.1266 9.92993 21.21 9.9645 21.2716 10.026C21.3331 10.0876 21.3677 10.171 21.3677 10.2581C21.3677 10.3451 21.3331 10.4285 21.2716 10.4901C21.21 10.5516 21.1266 10.5862 21.0396 10.5862V10.5862Z" fill="#FBD62E"/>
<path d="M19.8278 15.1057C19.7703 15.1056 19.7138 15.0904 19.6641 15.0616L18.3651 14.3116C18.291 14.2674 18.2373 14.1958 18.2156 14.1123C18.1939 14.0288 18.206 13.9401 18.2492 13.8654C18.2924 13.7908 18.3633 13.7361 18.4465 13.7133C18.5297 13.6905 18.6185 13.7014 18.6938 13.7436L19.9928 14.4936C20.0554 14.5298 20.1043 14.5855 20.132 14.6523C20.1597 14.7191 20.1645 14.7932 20.1458 14.863C20.127 14.9328 20.0857 14.9945 20.0283 15.0384C19.9709 15.0824 19.9006 15.1061 19.8283 15.106L19.8278 15.1057Z" fill="#FBD62E"/>
</svg>
