<svg width="16" height="16" viewBox="0 0 16 16" fill="none" xmlns="http://www.w3.org/2000/svg">
<path d="M7.99269 11.8827C7.56212 11.8827 7.21289 11.5331 7.21289 11.1029V4.91311C7.21289 4.48217 7.56194 4.1333 7.99269 4.1333C8.42345 4.1333 8.77214 4.48217 8.77214 4.91311V11.1029C8.77214 11.5331 8.42327 11.8827 7.99269 11.8827Z" fill="black"/>
<path d="M7.99209 11.8828C7.79243 11.8828 7.59313 11.8068 7.4409 11.6544L4.98762 9.20091C4.68316 8.89645 4.68316 8.40246 4.98762 8.09835C5.29173 7.79371 5.7859 7.79371 6.09018 8.09835L7.99209 10.0004L9.89452 8.098C10.1992 7.79389 10.6928 7.79389 10.9974 8.09835C11.3017 8.40281 11.3017 8.89645 10.9971 9.20091L8.54346 11.6544C8.39105 11.8068 8.19157 11.8828 7.99209 11.8828Z" fill="black"/>
<path d="M7.99201 15.9999C3.58567 15.9999 0 12.4147 0 8.00788C0 3.60137 3.58567 0.0158691 7.99201 0.0158691C12.3991 0.0158691 15.984 3.60154 15.984 8.00788C15.984 12.4147 12.3991 15.9999 7.99201 15.9999ZM7.99201 1.5753C4.44524 1.5753 1.55925 4.4611 1.55925 8.00788C1.55925 11.5548 4.44524 14.4403 7.99201 14.4403C11.5391 14.4403 14.4246 11.5548 14.4246 8.00788C14.4246 4.46093 11.5391 1.5753 7.99201 1.5753Z" fill="black"/>
</svg>
