<svg width="20" height="20" viewBox="0 0 20 20" fill="none" xmlns="http://www.w3.org/2000/svg">
<path d="M10 20C15.5228 20 20 15.5228 20 10C20 4.47715 15.5228 0 10 0C4.47715 0 0 4.47715 0 10C0 15.5228 4.47715 20 10 20Z" fill="#5FC691" fill-opacity="0.1"/>
<path d="M15.1366 5.83202L10.8632 3.23842C10.3392 2.92053 9.66078 2.92053 9.13647 3.23842L4.86353 5.83202C4.33077 6.15518 4 6.75754 4 7.40401V12.5911C4 13.2375 4.33091 13.8399 4.86338 14.1632L9.13662 16.7566C9.39877 16.9158 9.69731 17 10 17C10.3027 17 10.6012 16.9158 10.8634 16.7568L15.1366 14.1634C15.6692 13.84 16 13.2377 16 12.5912V7.40401C16.0001 6.75739 15.6692 6.15503 15.1366 5.83202ZM14.9974 12.5912C14.9974 12.8623 14.8586 13.115 14.6354 13.2505L10.3621 15.8439C10.1422 15.9775 9.85789 15.9775 9.638 15.8439L5.36477 13.2505C5.14144 13.115 5.00277 12.8623 5.00277 12.5912V7.40401C5.00277 7.13295 5.14144 6.88027 5.36477 6.74489L9.63786 4.15129C9.74787 4.08473 9.87308 4.04934 10 4.04934C10.1269 4.04934 10.2523 4.08458 10.362 4.15129L14.6354 6.74489C14.8587 6.88027 14.9972 7.13295 14.9972 7.40401V12.5912H14.9974ZM12.1787 7.56198L7.20829 11.5991C6.98911 11.7771 6.94872 12.1081 7.11804 12.3384C7.21674 12.4728 7.36515 12.5432 7.51514 12.5432C7.62215 12.5432 7.73002 12.5073 7.82127 12.4332L12.7917 8.3961C13.0109 8.2181 13.0513 7.8871 12.882 7.65685C12.7129 7.4266 12.3978 7.38399 12.1787 7.56198ZM8.94566 9.2927C9.31869 9.2927 9.66966 9.13985 9.93339 8.86262C10.1973 8.58539 10.3425 8.21674 10.3425 7.82461C10.3425 7.43248 10.1973 7.06353 9.93353 6.7863C9.66966 6.50891 9.31898 6.35622 8.9458 6.35622C8.57263 6.35622 8.22195 6.50906 7.95807 6.78615C7.6942 7.06323 7.54909 7.43217 7.54909 7.82446C7.54909 8.21674 7.69435 8.58554 7.95793 8.86262C8.2218 9.14001 8.57249 9.2927 8.94566 9.2927ZM11.0543 10.7025C10.6813 10.7025 10.3303 10.8554 10.0666 11.1326C9.80274 11.4098 9.65748 11.7785 9.65748 12.1706C9.65748 12.5627 9.80274 12.9317 10.0665 13.2089C10.3303 13.4863 10.681 13.639 11.0543 13.639C11.4274 13.639 11.7782 13.4862 12.0419 13.2089C12.3058 12.9317 12.4509 12.563 12.4509 12.1708C12.4509 11.7785 12.3057 11.4097 12.0421 11.1326C11.7782 10.8552 11.4275 10.7025 11.0543 10.7025Z" fill="#5FC691"/>
</svg>
