<svg width="24" height="24" viewBox="0 0 24 24" fill="none" xmlns="http://www.w3.org/2000/svg">
<path d="M12 21C16.9706 21 21 16.9706 21 12C21 7.02944 16.9706 3 12 3C7.02944 3 3 7.02944 3 12C3 16.9706 7.02944 21 12 21Z" fill="#ACACAC"/>
<path d="M12 6.375C8.895 6.375 6.375 8.895 6.375 12C6.375 15.105 8.895 17.625 12 17.625C15.105 17.625 17.625 15.105 17.625 12C17.625 8.895 15.105 6.375 12 6.375ZM12 16.5C9.51375 16.5 7.5 14.4862 7.5 12C7.5 10.9594 7.85437 10.0031 8.45062 9.24375L14.7562 15.5494C13.9969 16.1456 13.0406 16.5 12 16.5ZM15.5494 14.7562L9.24375 8.45062C10.0031 7.85437 10.9594 7.5 12 7.5C14.4862 7.5 16.5 9.51375 16.5 12C16.5 13.0406 16.1456 13.9969 15.5494 14.7562Z" fill="white"/>
</svg>
