<svg width="24" height="24" viewBox="0 0 24 24" fill="none" xmlns="http://www.w3.org/2000/svg">
<path fill-rule="evenodd" clip-rule="evenodd" d="M21 12C21 16.9706 16.9706 21 12 21C7.02944 21 3 16.9706 3 12C3 7.02944 7.02944 3 12 3C16.9706 3 21 7.02944 21 12ZM6.375 12C6.375 8.895 8.895 6.375 12 6.375C15.105 6.375 17.625 8.895 17.625 12C17.625 15.105 15.105 17.625 12 17.625C8.895 17.625 6.375 15.105 6.375 12ZM7.5 12C7.5 14.4862 9.51375 16.5 12 16.5C13.0406 16.5 13.9969 16.1456 14.7562 15.5494L8.45062 9.24375C7.85437 10.0031 7.5 10.9594 7.5 12ZM9.24375 8.45062L15.5494 14.7562C16.1456 13.9969 16.5 13.0406 16.5 12C16.5 9.51375 14.4862 7.5 12 7.5C10.9594 7.5 10.0031 7.85437 9.24375 8.45062Z" fill="#ACACAC"/>
</svg>
