<svg width="24" height="24" viewBox="0 0 24 24" fill="none" xmlns="http://www.w3.org/2000/svg">
<path d="M21.0558 12H19.0558C18.7906 12 18.5362 12.1054 18.3487 12.2929C18.1611 12.4804 18.0558 12.7348 18.0558 13C18.0558 13.2652 18.1611 13.5196 18.3487 13.7071C18.5362 13.8946 18.7906 14 19.0558 14V16H17.8715C17.9901 15.6798 18.0524 15.3415 18.0558 15C18.0559 14.3396 17.838 13.6976 17.436 13.1736C17.034 12.6497 16.4703 12.273 15.8324 12.1021C15.1945 11.9313 14.518 11.9757 13.9079 12.2285C13.2978 12.4813 12.7882 12.9285 12.4581 13.5005C12.3918 13.6143 12.3487 13.74 12.3311 13.8705C12.3135 14.0011 12.3219 14.1338 12.3558 14.261C12.3897 14.3883 12.4483 14.5076 12.5284 14.6121C12.6086 14.7166 12.7085 14.8043 12.8226 14.8701C12.9367 14.9359 13.0626 14.9785 13.1932 14.9954C13.3238 15.0124 13.4565 15.0034 13.5836 14.969C13.7107 14.9346 13.8297 14.8754 13.9339 14.7948C14.038 14.7142 14.1253 14.6139 14.1905 14.4995C14.2784 14.3477 14.4045 14.2217 14.5564 14.1341C14.7082 14.0464 14.8804 14.0002 15.0558 14C15.321 14 15.5754 14.1054 15.7629 14.2929C15.9504 14.4804 16.0558 14.7348 16.0558 15C16.0558 15.2652 15.9504 15.5196 15.7629 15.7071C15.5754 15.8946 15.321 16 15.0558 16C14.7906 16 14.5362 16.1054 14.3487 16.2929C14.1611 16.4804 14.0558 16.7348 14.0558 17C14.0558 17.2652 14.1611 17.5196 14.3487 17.7071C14.5362 17.8946 14.7906 18 15.0558 18C15.321 18 15.5754 18.1054 15.7629 18.2929C15.9504 18.4804 16.0558 18.7348 16.0558 19C16.0558 19.2652 15.9504 19.5196 15.7629 19.7071C15.5754 19.8946 15.321 20 15.0558 20C14.8804 19.9998 14.7082 19.9536 14.5564 19.8659C14.4045 19.7783 14.2784 19.6522 14.1905 19.5005C14.1253 19.3861 14.0381 19.2858 13.9339 19.2052C13.8297 19.1246 13.7107 19.0654 13.5836 19.031C13.4565 18.9966 13.3238 18.9876 13.1932 19.0045C13.0626 19.0215 12.9367 19.0641 12.8226 19.1299C12.7085 19.1957 12.6086 19.2834 12.5285 19.3879C12.4484 19.4924 12.3897 19.6117 12.3558 19.739C12.322 19.8662 12.3136 19.9989 12.3311 20.1294C12.3487 20.26 12.3918 20.3857 12.4581 20.4995C12.7882 21.0715 13.2978 21.5186 13.9079 21.7715C14.518 22.0243 15.1945 22.0687 15.8324 21.8978C16.4703 21.7269 17.034 21.3503 17.436 20.8264C17.838 20.3024 18.0559 19.6604 18.0558 19C18.0524 18.6585 17.9901 18.3202 17.8715 18H19.0558V21C19.0558 21.2652 19.1611 21.5196 19.3487 21.7071C19.5362 21.8946 19.7906 22 20.0558 22C20.321 22 20.5753 21.8946 20.7629 21.7071C20.9504 21.5196 21.0558 21.2652 21.0558 21V14C21.321 14 21.5753 13.8946 21.7629 13.7071C21.9504 13.5196 22.0558 13.2652 22.0558 13C22.0558 12.7348 21.9504 12.4804 21.7629 12.2929C21.5753 12.1054 21.321 12 21.0558 12V12ZM9.08606 11.2427C9.15042 11.4999 9.31432 11.721 9.54169 11.8573C9.65427 11.9248 9.77905 11.9695 9.9089 11.9888C10.0387 12.0081 10.1711 12.0016 10.2985 11.9697C10.4258 11.9379 10.5456 11.8812 10.6511 11.803C10.7565 11.7249 10.8456 11.6267 10.9131 11.5141C10.9806 11.4015 11.0253 11.2767 11.0446 11.1469C11.0639 11.017 11.0574 10.8847 11.0255 10.7573L9.26867 3.72755C9.14536 3.23411 8.86063 2.79607 8.45976 2.48305C8.05889 2.17003 7.56488 2 7.05627 2C6.54766 2 6.05365 2.17003 5.65278 2.48305C5.25191 2.79607 4.96718 3.23411 4.84387 3.72755L3.08606 10.7573C3.0217 11.0145 3.06214 11.2867 3.19849 11.5141C3.33483 11.7415 3.55592 11.9054 3.81311 11.9697C4.07029 12.0341 4.34251 11.9937 4.56988 11.8573C4.79725 11.721 4.96115 11.4999 5.02551 11.2427L5.5863 9H8.52557L9.08606 11.2427ZM6.08642 7L6.78332 4.2129C6.80445 4.15763 6.84186 4.11008 6.89059 4.07654C6.93933 4.04299 6.9971 4.02503 7.05627 4.02503C7.11544 4.02503 7.17321 4.04299 7.22195 4.07654C7.27068 4.11008 7.30809 4.15763 7.32922 4.2129L8.02575 7H6.08642ZM14.0558 7H15.0558C15.3209 7.00027 15.5751 7.10571 15.7626 7.29319C15.9501 7.48067 16.0555 7.73487 16.0558 8V9C16.0558 9.26522 16.1611 9.51957 16.3487 9.70711C16.5362 9.89465 16.7906 10 17.0558 10C17.321 10 17.5753 9.89465 17.7629 9.70711C17.9504 9.51957 18.0558 9.26522 18.0558 9V8C18.0549 7.20462 17.7386 6.44206 17.1761 5.87964C16.6137 5.31722 15.8512 5.00087 15.0558 5.00001H14.0558C13.7906 5.00001 13.5362 5.10536 13.3487 5.2929C13.1611 5.48043 13.0558 5.73479 13.0558 6C13.0558 6.26522 13.1611 6.51957 13.3487 6.70711C13.5362 6.89465 13.7906 7 14.0558 7V7ZM10.0558 16H9.05578C8.79065 15.9997 8.53645 15.8943 8.34897 15.7068C8.16149 15.5193 8.05605 15.2651 8.05578 15V14C8.05578 13.7348 7.95042 13.4804 7.76289 13.2929C7.57535 13.1054 7.321 13 7.05578 13C6.79056 13 6.53621 13.1054 6.34867 13.2929C6.16114 13.4804 6.05578 13.7348 6.05578 14V15C6.05665 15.7954 6.373 16.5579 6.93542 17.1204C7.49784 17.6828 8.2604 17.9991 9.05578 18H10.0558C10.321 18 10.5754 17.8946 10.7629 17.7071C10.9504 17.5196 11.0558 17.2652 11.0558 17C11.0558 16.7348 10.9504 16.4804 10.7629 16.2929C10.5754 16.1054 10.321 16 10.0558 16Z" fill="black"/>
</svg>
