<svg width="29" height="29" viewBox="0 0 29 29" fill="none" xmlns="http://www.w3.org/2000/svg">
<path d="M14.4987 10.3721C16.7767 10.3721 18.6262 12.2216 18.6262 14.4996C18.6262 16.7776 16.7767 18.6272 14.4987 18.6272C12.2207 18.6272 10.3711 16.7776 10.3711 14.4996C10.3711 12.2216 12.2207 10.3721 14.4987 10.3721Z" fill="white"/>
<g opacity="0.103468">
<path opacity="0.103468" d="M14.5 0C22.5026 0 29 6.49745 29 14.5C29 22.5026 22.5026 29 14.5 29C6.49745 29 0 22.5026 0 14.5C0 6.49745 6.49745 0 14.5 0Z" fill="white"/>
</g>
<g opacity="0.357143">
<path opacity="0.357143" d="M14.4988 2.83691C20.9356 2.83691 26.1618 8.06306 26.1618 14.4998C26.1618 20.9366 20.9356 26.1627 14.4988 26.1627C8.06209 26.1627 2.83594 20.9366 2.83594 14.4998C2.83594 8.06306 8.06209 2.83691 14.4988 2.83691Z" fill="white"/>
</g>
<g opacity="0.621212">
<path opacity="0.621212" d="M14.4996 6.9375C18.6732 6.9375 22.0617 10.3261 22.0617 14.4996C22.0617 18.6732 18.6732 22.0617 14.4996 22.0617C10.3261 22.0617 6.9375 18.6732 6.9375 14.4996C6.9375 10.3261 10.3261 6.9375 14.4996 6.9375Z" fill="white"/>
</g>
</svg>
