<svg width="30" height="29" viewBox="0 0 30 29" fill="none" xmlns="http://www.w3.org/2000/svg">
<path d="M25.5395 17.8563C25.1128 19.1557 23.8603 19.3269 23.0284 20.4643C22.1966 21.6017 22.4129 22.8472 21.3039 23.6476C20.1948 24.448 19.0809 23.8503 17.7394 24.2816C16.3979 24.7128 15.8408 25.8475 14.4731 25.8432C13.1054 25.8388 12.5556 24.7006 11.2168 24.2609C9.87798 23.8212 8.76033 24.4118 7.65639 23.6044C6.55246 22.797 6.77663 21.553 5.95197 20.4103C5.12731 19.2677 3.87597 19.0886 3.45745 17.7865C3.03893 16.4844 3.95153 15.6097 3.95598 14.2006C3.96044 12.7915 3.05339 11.911 3.48014 10.6116C3.90689 9.31223 5.15933 9.14099 5.9912 8.0036C6.82307 6.86622 6.60677 5.62076 7.71579 4.82036C8.8248 4.01995 9.93871 4.61759 11.2802 4.18638C12.6218 3.75518 13.1789 2.62045 14.5465 2.62477C15.9142 2.62909 16.4641 3.76733 17.8029 4.20701C19.1417 4.64669 20.2593 4.05611 21.3632 4.86351C22.4672 5.67091 22.243 6.91497 23.0677 8.0576C23.8923 9.20022 25.1437 9.37938 25.5622 10.6814C25.9807 11.9835 25.0681 12.8582 25.0637 14.2673C25.0592 15.6764 25.9663 16.5569 25.5395 17.8563Z" fill="#D22836"/>
<path d="M17.7088 3.07459C19.0235 3.45162 19.2422 4.69665 20.4104 5.48466C21.5786 6.27267 22.815 6.00917 23.657 7.08694C24.499 8.16472 23.9441 9.30054 24.426 10.6247C24.9079 11.9489 26.063 12.4624 26.1107 13.8293C26.1584 15.1961 25.0419 15.7889 24.6535 17.1434C24.265 18.498 24.8977 19.5924 24.1328 20.7262C23.368 21.86 22.1163 21.6833 21.0059 22.5508C19.8954 23.4184 19.764 24.6756 18.4788 25.1433C17.1936 25.6111 16.2848 24.7324 14.8765 24.7815C13.4682 24.8307 12.6229 25.7706 11.3082 25.3935C9.9935 25.0165 9.77476 23.7715 8.60656 22.9835C7.43836 22.1955 6.20203 22.459 5.36003 21.3812C4.51803 20.3034 5.07288 19.1676 4.59096 17.8434C4.10905 16.5193 2.95396 16.0057 2.90627 14.6389C2.85858 13.272 3.97507 12.6793 4.36352 11.3247C4.75197 9.97016 4.11932 8.87577 4.88415 7.74193C5.64899 6.60809 6.90068 6.78479 8.01111 5.91728C9.12155 5.04976 9.25299 3.79252 10.5382 3.32478C11.8234 2.85704 12.7322 3.73572 14.1405 3.68658C15.5488 3.63744 16.3941 2.69757 17.7088 3.07459Z" fill="#ED2E3D"/>
<path d="M12.7432 17.9965C12.5314 17.9965 12.3195 17.9156 12.1578 17.7539L10.1293 15.7254C9.80586 15.4022 9.80586 14.8778 10.1293 14.5546C10.4527 14.2312 10.9766 14.2312 11.3 14.5546L12.7432 15.9978L17.8945 10.8468C18.218 10.5234 18.7418 10.5234 19.0653 10.8468C19.3887 11.1702 19.3887 11.6944 19.0653 12.0175L13.3286 17.7539C13.1669 17.9156 12.955 17.9965 12.7432 17.9965Z" fill="white"/>
</svg>
