<svg width="30" height="29" viewBox="0 0 30 29" fill="none" xmlns="http://www.w3.org/2000/svg">
<path fill-rule="evenodd" clip-rule="evenodd" d="M26 15C26 21.0751 21.0751 26 15 26C8.92487 26 4 21.0751 4 15C4 8.92487 8.92487 4 15 4C21.0751 4 26 8.92487 26 15ZM20.4507 12.3246L20.4505 12.3247L13.613 19.1559H13.6129C13.3077 19.4611 12.8142 19.4611 12.509 19.1559L9.80618 16.453C9.50091 16.1477 9.50091 15.6607 9.80618 15.3555C10.1115 15.0502 10.5985 15.0502 10.9037 15.3555L13.0642 17.516L19.3531 11.2271C19.6584 10.9218 20.1454 10.9218 20.4507 11.2271C20.7559 11.5324 20.7559 12.0194 20.4507 12.3246Z" fill="#ED2E3D"/>
</svg>
