<svg width="47" height="24" viewBox="0 0 47 24" fill="none" xmlns="http://www.w3.org/2000/svg">
<path d="M10.1812 4.9099C10.1812 5.55795 9.90149 5.86998 9.38716 5.86998C8.90137 5.86998 8.65876 5.60475 8.65876 4.9567V2.15869H7.09863V5.31013C7.09863 6.53722 7.70602 7.20508 8.75409 7.20508C9.03377 7.2189 9.3121 7.15657 9.56213 7.02411C9.81215 6.89165 10.0254 6.69355 10.1812 6.44902V7.05808H11.7413V2.15869H10.1812V4.9099Z" fill="white"/>
<path d="M15.4771 2.0115C15.1975 1.99501 14.9185 2.05401 14.6667 2.18288C14.4149 2.31175 14.1987 2.50621 14.0386 2.74775V2.15851H12.5161V9.04104H14.0762V6.52084C14.2385 6.74642 14.4513 6.92633 14.6957 7.04452C14.9401 7.16272 15.2086 7.21553 15.4771 7.19829C15.8567 7.21619 16.2327 7.11337 16.5559 6.90325C16.8792 6.69312 17.1346 6.38546 17.289 6.02041C17.6258 5.11367 17.6258 4.10692 17.289 3.20018C17.1369 2.83255 16.8823 2.52208 16.5588 2.30984C16.2353 2.09759 15.8581 1.99357 15.4771 2.0115V2.0115ZM15.7665 5.35914C15.6964 5.51742 15.5818 5.64931 15.4382 5.73707C15.2946 5.82482 15.1289 5.86424 14.9633 5.85C14.3748 5.85 14.0574 5.45697 14.0574 4.73031V4.46508C14.0574 3.73843 14.3748 3.346 14.9633 3.346C15.1289 3.33176 15.2946 3.37116 15.4382 3.45891C15.5818 3.54667 15.6964 3.67856 15.7665 3.83683C15.8535 4.0813 15.8923 4.34178 15.8807 4.60249C15.8928 4.86069 15.8539 5.11872 15.7665 5.36035V5.35914Z" fill="white"/>
<path d="M27.8259 2.02251C27.6423 2.02099 27.4621 2.07469 27.3065 2.17728C27.151 2.27988 27.0266 2.42709 26.948 2.60155V2.15992H25.397V7.05929H26.9565V3.96665C26.9565 3.62283 26.9845 3.54663 27.1158 3.48662C27.1855 3.62467 27.2908 3.73929 27.4197 3.81739C27.5485 3.89549 27.6956 3.93391 27.8442 3.92825C27.9639 3.93297 28.0833 3.91149 28.1948 3.86517C28.3062 3.81885 28.4073 3.74872 28.4916 3.6592C28.5759 3.56967 28.6416 3.46272 28.6845 3.34511C28.7275 3.2275 28.7467 3.1018 28.741 2.97598C28.7485 2.84798 28.73 2.71976 28.6865 2.59992C28.6431 2.48008 28.5758 2.37137 28.4892 2.28109C28.4025 2.19081 28.2985 2.12104 28.1841 2.07644C28.0697 2.03184 27.9476 2.01346 27.8259 2.02251V2.02251Z" fill="white"/>
<path d="M31.3797 2.01099C30.3339 2.01099 29.5393 2.33502 29.231 3.05147C29.1423 3.26875 29.0948 3.50212 29.0912 3.73852H30.6787C30.6815 3.63759 30.7007 3.53792 30.7358 3.4439C30.8288 3.22788 31.0349 3.12946 31.3985 3.12946C31.7349 3.12946 31.9498 3.23748 32.043 3.45349C32.1086 3.62129 32.1342 3.80336 32.1178 3.98394V4.06255H31.4173C30.2757 4.06255 29.372 4.23955 29.0358 5.00521C28.9552 5.21744 28.9164 5.44463 28.9216 5.67307C28.9123 5.91307 28.9571 6.15198 29.0523 6.37032C29.1985 6.65207 29.4217 6.88127 29.6932 7.02825C29.9646 7.17523 30.2717 7.23325 30.5748 7.19479C30.8684 7.22234 31.1638 7.17103 31.4334 7.04572C31.703 6.9204 31.9379 6.72518 32.1161 6.47834V7.05738H33.6756V4.23715C33.6873 3.8248 33.6205 3.41415 33.4792 3.02926C33.1733 2.32661 32.51 2.01099 31.3797 2.01099ZM32.1178 5.04482C32.1329 5.22937 32.104 5.41496 32.0339 5.58486C31.9577 5.737 31.839 5.86092 31.6937 5.93989C31.5485 6.01887 31.3837 6.04909 31.2216 6.02649C31.1027 6.04506 30.9813 6.02714 30.8719 5.97487C30.7625 5.9226 30.6699 5.83821 30.605 5.73187C30.5709 5.65883 30.5548 5.57795 30.5582 5.49665C30.5572 5.42175 30.5732 5.34767 30.605 5.28064C30.7078 5.02562 31.072 4.97641 31.5184 4.97641H32.1161L32.1178 5.04482Z" fill="white"/>
<path d="M37.7838 2.69045C37.6208 2.46562 37.4078 2.28627 37.1634 2.16816C36.9191 2.05004 36.6509 1.99677 36.3824 2.013C36.0013 1.99375 35.6236 2.09716 35.2999 2.30945C34.9761 2.52174 34.7217 2.83281 34.5705 3.2011C34.2337 4.10783 34.2337 5.11458 34.5705 6.02131C34.7232 6.3877 34.9783 6.69663 35.3019 6.90711C35.6255 7.11759 36.0023 7.21967 36.3824 7.19981C36.6611 7.21701 36.9395 7.15933 37.1911 7.0322C37.4428 6.90507 37.6596 6.71268 37.8209 6.47315V7.0624H39.3434V0.126465H37.7838V2.69045ZM37.8027 4.75221C37.8027 5.47887 37.4853 5.87129 36.8967 5.87129C36.7312 5.88554 36.5654 5.84614 36.4218 5.75838C36.2782 5.67063 36.1637 5.53873 36.0936 5.38046C36.0066 5.13244 35.9678 4.86864 35.9794 4.6046C35.9676 4.34388 36.0065 4.08337 36.0936 3.83894C36.1637 3.68067 36.2782 3.54877 36.4218 3.46102C36.5654 3.37326 36.7312 3.33386 36.8967 3.34811C37.4853 3.34811 37.8027 3.74053 37.8027 4.46719V4.75221Z" fill="white"/>
<path d="M21.8728 4.6353H22.8781L22.8404 4.80033C22.7467 5.07079 22.5758 5.30416 22.3509 5.46842C22.1261 5.63269 21.8584 5.7198 21.5845 5.71779C20.883 5.71779 19.9748 5.36257 19.9748 3.66923C19.9748 2.26753 20.5599 1.59788 21.4538 1.59788C21.6599 1.57161 21.8689 1.60203 22.0605 1.68618C22.252 1.77032 22.4194 1.9053 22.5464 2.07791C22.6499 2.24384 22.7152 2.43287 22.7371 2.62996H24.5227C24.5158 2.0234 24.2916 1.44187 23.8948 1.00142C23.8839 0.989419 23.8736 0.978633 23.8628 0.967232C23.5543 0.641 23.1839 0.38665 22.7758 0.220726C22.3676 0.0548029 21.9308 -0.0189879 21.4938 0.00415093C19.4319 0.00415093 18.1001 1.44426 18.1001 3.67943C18.1001 6.25963 19.7875 7.1783 21.2323 7.1783C21.5947 7.19962 21.9574 7.14361 22.2986 7.01368C22.6398 6.88374 22.9525 6.68256 23.2177 6.42224L23.2389 7.0583H24.6363V3.3704H21.874L21.8728 4.6353Z" fill="white"/>
<path d="M44.3851 18.8689L44.2138 19.1533C43.8768 19.7406 43.4264 20.2471 42.8917 20.6402C42.4492 20.9623 41.9246 21.1366 41.3864 21.1401C40.8534 21.1535 40.335 20.9567 39.933 20.5886C39.7216 20.3641 39.5594 20.0938 39.4576 19.7966C39.3559 19.4993 39.3171 19.1823 39.3439 18.8677V16.2827H44.1556V13.5825H39.3439V9.55859H36.4663V19.2193C36.4663 19.4146 36.4733 19.6038 36.4874 19.787C36.0313 20.0658 35.5509 20.2983 35.0528 20.4812C33.1177 21.2719 30.964 21.2288 29.059 20.3612C28.4103 20.0339 27.8594 19.5258 27.4663 18.8923C27.8967 18.9343 28.3032 18.9523 28.6782 18.9523C29.8177 18.9649 30.9517 18.7862 32.0376 18.4231C32.9844 18.1193 33.8403 17.5635 34.5225 16.8095C35.1575 16.0797 35.5007 15.1209 35.481 14.1321C35.4929 13.2791 35.2536 12.4431 34.796 11.7386C34.3266 11.0349 33.6839 10.4788 32.9367 10.1298C32.1145 9.74293 31.2218 9.5494 30.3211 9.56279C29.1738 9.55109 28.0434 9.85408 27.0416 10.4419C26.0509 11.0284 25.2355 11.8939 24.6874 12.9411C24.1821 13.9629 23.8922 15.0872 23.8376 16.2374C23.7829 17.3876 23.9647 18.5367 24.3706 19.6064C23.8329 19.9672 23.257 20.261 22.6546 20.4818C20.7195 21.2726 18.5658 21.2295 16.6607 20.3618C16.012 20.0345 15.4612 19.5264 15.0681 18.8929C15.4985 18.9349 15.9038 18.9529 16.2794 18.9529C16.9016 18.9542 17.5229 18.9036 18.1375 18.8017H18.1444C18.6515 18.718 19.1514 18.5918 19.6394 18.4243C20.5861 18.1204 21.4421 17.5646 22.1243 16.8108C22.7593 16.0809 23.1025 15.1221 23.0828 14.1333C23.0945 13.2804 22.8552 12.4444 22.3977 11.7397C21.9282 11.0363 21.2855 10.4802 20.5385 10.131C19.7165 9.74419 18.824 9.55068 17.9234 9.564C16.7761 9.55222 15.6458 9.85521 14.6439 10.4431C13.6533 11.0294 12.838 11.8947 12.2898 12.9417C11.8509 13.7776 11.5763 14.6977 11.482 15.6473C10.9647 15.4971 10.4602 15.3018 9.97384 15.0634V9.564H7.0962V18.9247C7.12311 19.2395 7.08434 19.5565 6.98259 19.8539C6.88083 20.1512 6.71856 20.4217 6.50708 20.6462C6.10517 21.0145 5.58669 21.2112 5.0537 21.1977C4.51551 21.1941 3.99088 21.0199 3.54839 20.6979C3.0137 20.3048 2.56333 19.7982 2.2263 19.2109L2.05505 18.9265L0 20.5694L0.121018 20.8023C0.619492 21.7823 1.3684 22.5965 2.28339 23.1532C3.20406 23.7149 4.25127 24.0064 5.31572 23.9975C6.51215 24.0363 7.68244 23.6248 8.61579 22.837C8.73328 22.7339 8.84408 22.6226 8.94745 22.504C9.49664 21.7247 9.84294 20.8082 9.95215 19.8452C9.96623 19.6616 9.97326 19.4724 9.97326 19.2775V17.823C10.5023 18.0316 11.0425 18.2075 11.591 18.3499C11.7514 19.1844 12.0713 19.976 12.5312 20.6768C13.2644 21.7766 14.2795 22.635 15.4585 23.152C16.7143 23.7043 18.0642 23.9813 19.4253 23.9663C20.8003 23.9642 22.1645 23.7122 23.4578 23.2216C24.3415 22.8921 25.1811 22.4442 25.9558 21.8889C26.5198 22.4146 27.1614 22.8403 27.8556 23.149C29.1114 23.7013 30.4612 23.9783 31.8224 23.9633C33.1974 23.9612 34.5616 23.7092 35.8549 23.2186C36.4184 23.0067 36.9649 22.7479 37.4892 22.4446C37.5926 22.5633 37.7034 22.6745 37.8209 22.7776C38.7542 23.5656 39.9245 23.9773 41.121 23.9387C42.1853 23.9478 43.2325 23.6564 44.1533 23.095C45.0676 22.5384 45.8161 21.7246 46.3145 20.7453L46.4355 20.5124L44.3851 18.8689ZM14.9111 14.1526C15.2142 13.595 15.6573 13.1358 16.1921 12.8252C16.6955 12.5218 17.2686 12.3697 17.8488 12.3857C18.4289 12.4017 18.9937 12.5851 19.4813 12.9159C19.6806 13.0483 19.8449 13.2314 19.959 13.4483C20.073 13.6652 20.1331 13.9089 20.1338 14.1567C20.1338 14.8306 19.7547 15.3322 18.975 15.6905C17.5208 16.2756 15.9457 16.4478 14.4082 16.1897C14.4068 15.4765 14.58 14.775 14.9111 14.1526V14.1526ZM27.3082 14.1526C27.6112 13.595 28.0544 13.1358 28.5891 12.8252C29.0928 12.5221 29.666 12.3701 30.2461 12.3861C30.8263 12.4021 31.3911 12.5854 31.8789 12.9159C32.0783 13.0483 32.2426 13.2314 32.3566 13.4483C32.4707 13.6652 32.5308 13.9089 32.5314 14.1567C32.5314 14.8306 32.1524 15.3322 31.3726 15.6905C29.9185 16.2755 28.3434 16.4477 26.8058 16.1897C26.8045 15.4766 26.9777 14.775 27.3087 14.1526H27.3082Z" fill="white"/>
</svg>
