<svg width="24" height="24" viewBox="0 0 24 24" fill="none" xmlns="http://www.w3.org/2000/svg">
<path d="M10.6021 20.0372C6.40356 20.0372 3 16.6244 3 12.4146C3 8.20479 6.4036 4.79199 10.6021 4.79199L12.5035 4.79199L12.5035 20.0372H10.6021Z" fill="#E48863"/>
<path d="M12.5045 20.0372C16.703 20.0372 20.1066 16.6244 20.1066 12.4146C20.1066 8.20474 16.703 4.79199 12.5045 4.79199C8.30593 4.79199 4.90234 8.20474 4.90234 12.4146C4.90234 16.6244 8.30593 20.0372 12.5045 20.0372Z" fill="#F5DE58"/>
<path d="M13.0245 20.0193C12.8527 20.0312 12.6794 20.0371 12.5046 20.0371C8.30602 20.0371 4.90234 16.6243 4.90234 12.4144C4.90234 8.20459 8.30602 4.79175 12.5046 4.79175C12.6794 4.79175 12.8527 4.7977 13.0245 4.80961C9.06861 5.07752 5.94252 8.37984 5.94252 12.4144C5.94252 16.4491 9.06861 19.7514 13.0245 20.0193Z" fill="#EEBD56"/>
<path d="M12.5027 17.842C15.4921 17.842 17.9155 15.4121 17.9155 12.4146C17.9155 9.41712 15.4921 6.98718 12.5027 6.98718C9.51326 6.98718 7.08984 9.41712 7.08984 12.4146C7.08984 15.4121 9.51326 17.842 12.5027 17.842Z" fill="#EEBD56"/>
<path d="M17.9159 12.4147C17.9159 15.4073 15.4879 17.8422 12.5033 17.8422C12.2288 17.8422 11.9589 17.8215 11.6953 17.7819C14.298 17.3895 16.3002 15.132 16.3002 12.4147C16.3002 9.69732 14.298 7.43987 11.6953 7.04742C11.959 7.00791 12.2289 6.98718 12.5033 6.98718C15.4879 6.98718 17.9159 9.42208 17.9159 12.4147V12.4147Z" fill="#E48863"/>
<path d="M15.3659 12.2734C15.9254 11.7266 15.6166 10.7739 14.8435 10.6613L14.0454 10.545C13.7384 10.5003 13.473 10.3069 13.3356 10.028L13.098 9.5451H13.2867V8.77721H12.1737C11.8243 8.76262 11.4679 8.93747 11.2881 9.30275L10.9312 10.028C10.7939 10.3069 10.5285 10.5003 10.2215 10.545L9.42332 10.6613C8.65018 10.7739 8.34147 11.7266 8.90093 12.2734L9.47846 12.8379C9.70063 13.055 9.80202 13.3679 9.74954 13.6745L9.6132 14.4715C9.50956 15.0774 9.98497 15.5702 10.5286 15.5782L10.5285 15.5785H11.6361V15.1225L11.6948 15.0916C11.9694 14.9468 12.2974 14.9468 12.572 15.0916L13.286 15.4679C13.4171 15.537 13.5525 15.5717 13.6849 15.5775L13.6847 15.5786H14.7922V15.0916H14.5491C14.6485 14.9146 14.6929 14.7013 14.6536 14.4716L14.5173 13.6745C14.4648 13.3679 14.5662 13.0551 14.7884 12.8379L15.3659 12.2734Z" fill="#E48863"/>
<path d="M14.092 9.30127L14.449 10.0265C14.5863 10.3054 14.8517 10.4988 15.1587 10.5435L15.9569 10.6598C16.73 10.7724 17.0387 11.7251 16.4793 12.2719L15.9017 12.8364C15.6795 13.0535 15.5782 13.3664 15.6306 13.673L15.7669 14.47C15.899 15.2421 15.0908 15.8309 14.3993 15.4664L13.6854 15.0901C13.4108 14.9453 13.0827 14.9453 12.8081 15.0901L12.0942 15.4664C11.4027 15.8309 10.5945 15.2421 10.7265 14.47L10.8629 13.673C10.9153 13.3664 10.8139 13.0536 10.5918 12.8364L10.0142 12.2719C9.45475 11.7251 9.76346 10.7725 10.5366 10.6598L11.3347 10.5435C11.6418 10.4988 11.9072 10.3054 12.0445 10.0265L12.4014 9.30127C12.7473 8.5988 13.7463 8.5988 14.092 9.30127V9.30127Z" fill="#F5DE58"/>
<path d="M19.0861 5.61385H18.3574V4.88314C18.3574 4.39539 17.9631 4 17.4766 4C16.9902 4 16.5958 4.39539 16.5958 4.88314V5.61385H15.8671C15.3807 5.61385 14.9863 6.00925 14.9863 6.497C14.9863 6.98475 15.3807 7.38014 15.8671 7.38014H16.5958V8.11085C16.5958 8.5986 16.9902 8.99399 17.4766 8.99399C17.9631 8.99399 18.3574 8.5986 18.3574 8.11085V7.38014H19.0861C19.5726 7.38014 19.9669 6.98475 19.9669 6.497C19.9669 6.00925 19.5726 5.61385 19.0861 5.61385V5.61385Z" fill="#F9A81F"/>
<path d="M11.8981 13.4337C12.3518 13.4337 12.6534 13.2024 12.6534 12.7018V11.4459H12.062V12.693C12.062 12.8306 11.9742 12.9126 11.8454 12.9126C11.7458 12.9126 11.658 12.8687 11.5936 12.8248L11.3535 13.2756C11.5058 13.3927 11.7078 13.4337 11.8981 13.4337ZM13.9673 13.4337C14.4796 13.4337 14.7402 13.1234 14.8543 12.8628L14.3449 12.6286C14.2952 12.7808 14.1429 12.9126 13.9673 12.9126C13.6833 12.9126 13.493 12.6959 13.493 12.4237C13.493 12.1514 13.6833 11.9348 13.9673 11.9348C14.1429 11.9348 14.2952 12.0665 14.3449 12.2188L14.8543 11.9816C14.7372 11.7123 14.4796 11.4137 13.9673 11.4137C13.3554 11.4137 12.8929 11.8206 12.8929 12.4237C12.8929 13.0238 13.3554 13.4337 13.9673 13.4337Z" fill="#E48863"/>
</svg>
