<svg width="26" height="26" viewBox="0 0 26 26" fill="none" xmlns="http://www.w3.org/2000/svg">
<path d="M13 26C20.1797 26 26 20.1797 26 13C26 5.8203 20.1797 0 13 0C5.8203 0 0 5.8203 0 13C0 20.1797 5.8203 26 13 26Z" fill="#FFD64F"/>
<path fill-rule="evenodd" clip-rule="evenodd" d="M8.52256 12.8375C8.52256 15.2727 10.2882 16.9319 12.2714 17.2751C12.3253 17.2844 12.3769 17.3043 12.4232 17.3336C12.4694 17.3629 12.5095 17.401 12.541 17.4457C12.5725 17.4905 12.595 17.541 12.607 17.5944C12.619 17.6479 12.6203 17.7031 12.611 17.7571C12.6016 17.811 12.5817 17.8626 12.5525 17.9088C12.5232 17.9551 12.4851 17.9952 12.4403 18.0267C12.3956 18.0582 12.345 18.0806 12.2916 18.0926C12.2382 18.1046 12.1829 18.106 12.129 18.0967C9.80017 17.6935 7.68896 15.7303 7.68896 12.8375C7.68896 11.6079 8.24816 10.6415 8.90096 9.90704C9.36896 9.38064 9.90417 8.95264 10.3346 8.62544H9.02577C8.91969 8.62544 8.81793 8.5833 8.74292 8.50828C8.6679 8.43327 8.62576 8.33153 8.62576 8.22544C8.62576 8.11935 8.6679 8.01761 8.74292 7.9426C8.81793 7.86758 8.91969 7.82544 9.02577 7.82544H11.4258C11.5319 7.82544 11.6336 7.86758 11.7086 7.9426C11.7836 8.01761 11.8258 8.11935 11.8258 8.22544V10.6255C11.8258 10.7315 11.7836 10.8333 11.7086 10.9083C11.6336 10.9833 11.5319 11.0255 11.4258 11.0255C11.3197 11.0255 11.218 10.9833 11.1429 10.9083C11.0679 10.8333 11.0258 10.7315 11.0258 10.6255V9.14864L11.025 9.15024C10.5674 9.49424 10.009 9.91584 9.52497 10.4607C8.95297 11.1039 8.52256 11.8815 8.52256 12.8367V12.8375ZM17.409 13.1623C17.409 10.7527 15.681 9.10384 13.7234 8.73584C13.6688 8.72658 13.6166 8.70655 13.5699 8.67692C13.5232 8.64728 13.4828 8.60864 13.4512 8.56324C13.4195 8.51784 13.3972 8.46659 13.3856 8.41248C13.374 8.35838 13.3732 8.3025 13.3834 8.2481C13.3936 8.19371 13.4146 8.14189 13.445 8.09567C13.4754 8.04946 13.5148 8.00976 13.5607 7.97891C13.6067 7.94805 13.6583 7.92666 13.7126 7.91597C13.7669 7.90527 13.8228 7.9055 13.877 7.91664C16.1762 8.34864 18.2426 10.3007 18.2426 13.1623C18.2426 14.3919 17.6834 15.3575 17.0306 16.0927C16.5626 16.6191 16.0274 17.0471 15.597 17.3743H16.9058C17.0119 17.3743 17.1136 17.4164 17.1886 17.4914C17.2636 17.5664 17.3058 17.6682 17.3058 17.7743C17.3058 17.8803 17.2636 17.9821 17.1886 18.0571C17.1136 18.1321 17.0119 18.1743 16.9058 18.1743H14.5058C14.3997 18.1743 14.298 18.1321 14.2229 18.0571C14.1479 17.9821 14.1058 17.8803 14.1058 17.7743V15.3743C14.1058 15.2682 14.1479 15.1664 14.2229 15.0914C14.298 15.0164 14.3997 14.9743 14.5058 14.9743C14.6119 14.9743 14.7136 15.0164 14.7886 15.0914C14.8636 15.1664 14.9058 15.2682 14.9058 15.3743V16.8503H14.9074C15.3642 16.5047 15.9234 16.0839 16.4066 15.5383C16.9786 14.8959 17.409 14.1183 17.409 13.1623Z" fill="white"/>
</svg>
