<svg width="49" height="26" viewBox="0 0 49 26" fill="none" xmlns="http://www.w3.org/2000/svg">
<path d="M11.0897 5.12809C11.0897 5.80493 10.7975 6.13083 10.2603 6.13083C9.75295 6.13083 9.49956 5.85382 9.49956 5.17697V2.25464H7.87012V5.5461C7.87012 6.82772 8.50449 7.52526 9.59913 7.52526C9.89124 7.53969 10.1819 7.47458 10.4431 7.33624C10.7042 7.19789 10.9269 6.99099 11.0897 6.7356V7.37171H12.7191V2.25464H11.0897V5.12809Z" fill="#ED2E3D"/>
<path d="M16.6209 2.10073C16.3288 2.08351 16.0374 2.14513 15.7744 2.27973C15.5115 2.41433 15.2856 2.61742 15.1184 2.86969V2.25427H13.5283V9.44261H15.1578V6.81043C15.3272 7.04603 15.5495 7.23393 15.8048 7.35738C16.06 7.48083 16.3404 7.53599 16.6209 7.51798C17.0174 7.53668 17.4101 7.42929 17.7477 7.20983C18.0852 6.99037 18.352 6.66904 18.5132 6.28777C18.865 5.34074 18.865 4.28926 18.5132 3.34223C18.3544 2.95827 18.0885 2.634 17.7506 2.41232C17.4127 2.19065 17.0188 2.082 16.6209 2.10073V2.10073ZM16.9231 5.59712C16.8499 5.76243 16.7302 5.90018 16.5802 5.99183C16.4303 6.08349 16.2572 6.12466 16.0843 6.10978C15.4696 6.10978 15.1381 5.69929 15.1381 4.94035V4.66333C15.1381 3.90439 15.4696 3.49453 16.0843 3.49453C16.2572 3.47965 16.4303 3.5208 16.5802 3.61246C16.7302 3.70411 16.8499 3.84187 16.9231 4.00717C17.014 4.26249 17.0546 4.53455 17.0424 4.80685C17.055 5.07652 17.0144 5.34602 16.9231 5.59838V5.59712Z" fill="#ED2E3D"/>
<path d="M29.5183 2.11245C29.3265 2.11086 29.1383 2.16695 28.9758 2.2741C28.8134 2.38126 28.6834 2.53501 28.6014 2.71722V2.25597H26.9814V7.37303H28.6103V4.14298C28.6103 3.78388 28.6395 3.70429 28.7766 3.64162C28.8495 3.7858 28.9595 3.90552 29.094 3.98709C29.2285 4.06866 29.3822 4.10878 29.5374 4.10287C29.6625 4.1078 29.7872 4.08536 29.9035 4.03699C30.0199 3.98861 30.1255 3.91536 30.2136 3.82186C30.3016 3.72836 30.3702 3.61665 30.4151 3.49382C30.4599 3.37099 30.48 3.2397 30.474 3.10828C30.4819 2.9746 30.4625 2.84069 30.4172 2.71552C30.3718 2.59035 30.3015 2.47682 30.211 2.38253C30.1205 2.28823 30.0119 2.21536 29.8924 2.16878C29.773 2.1222 29.6454 2.103 29.5183 2.11245V2.11245Z" fill="#ED2E3D"/>
<path d="M33.2297 2.10034C32.1374 2.10034 31.3075 2.43877 30.9855 3.18706C30.8929 3.41399 30.8433 3.65773 30.8395 3.90463H32.4975C32.5004 3.79922 32.5206 3.69513 32.5571 3.59692C32.6543 3.37131 32.8696 3.26852 33.2493 3.26852C33.6007 3.26852 33.8251 3.38133 33.9225 3.60694C33.9909 3.7822 34.0178 3.97236 34.0006 4.16096V4.24306H33.269C32.0766 4.24306 31.1328 4.42793 30.7816 5.22761C30.6974 5.44926 30.6569 5.68655 30.6624 5.92514C30.6527 6.17581 30.6994 6.42533 30.7989 6.65337C30.9516 6.94764 31.1847 7.18702 31.4682 7.34053C31.7517 7.49404 32.0724 7.55464 32.389 7.51448C32.6957 7.54324 33.0042 7.48966 33.2858 7.35878C33.5674 7.22789 33.8127 7.024 33.9988 6.76619V7.37096H35.6276V4.42542C35.6398 3.99475 35.5701 3.56585 35.4225 3.16386C35.103 2.42998 34.4102 2.10034 33.2297 2.10034ZM34.0006 5.26898C34.0163 5.46172 33.9862 5.65556 33.9129 5.83301C33.8334 5.99191 33.7094 6.12134 33.5577 6.20382C33.406 6.2863 33.2338 6.31786 33.0645 6.29427C32.9404 6.31366 32.8136 6.29494 32.6993 6.24035C32.5851 6.18576 32.4883 6.09762 32.4206 5.98655C32.385 5.91027 32.3682 5.82579 32.3717 5.74088C32.3706 5.66265 32.3874 5.58529 32.4206 5.51528C32.5279 5.24893 32.9083 5.19753 33.3745 5.19753H33.9988L34.0006 5.26898Z" fill="#ED2E3D"/>
<path d="M39.9188 2.80999C39.7485 2.57517 39.526 2.38785 39.2708 2.26449C39.0156 2.14113 38.7355 2.08549 38.4551 2.10244C38.057 2.08233 37.6626 2.19034 37.3245 2.41206C36.9863 2.63379 36.7206 2.95868 36.5627 3.34333C36.2109 4.29034 36.2109 5.34183 36.5627 6.28884C36.7222 6.67151 36.9886 6.99418 37.3266 7.21401C37.6645 7.43384 38.0581 7.54046 38.4551 7.51971C38.7462 7.53768 39.0369 7.47743 39.2998 7.34465C39.5626 7.21187 39.789 7.01094 39.9576 6.76077V7.37619H41.5476V0.13208H39.9188V2.80999ZM39.9384 4.96336C39.9384 5.72231 39.607 6.13217 38.9923 6.13217C38.8194 6.14704 38.6463 6.10589 38.4963 6.01424C38.3463 5.92258 38.2267 5.78483 38.1534 5.61952C38.0626 5.36049 38.0221 5.08496 38.0342 4.80919C38.0219 4.53689 38.0625 4.2648 38.1534 4.00951C38.2267 3.84421 38.3463 3.70645 38.4963 3.6148C38.6463 3.52314 38.8194 3.48199 38.9923 3.49687C39.607 3.49687 39.9384 3.90673 39.9384 4.66567V4.96336Z" fill="#ED2E3D"/>
<path d="M23.3007 4.84126H24.3506L24.3113 5.01362C24.2135 5.2961 24.0349 5.53983 23.8 5.7114C23.5652 5.88296 23.2856 5.97394 22.9996 5.97185C22.2669 5.97185 21.3183 5.60084 21.3183 3.83227C21.3183 2.36828 21.9294 1.66888 22.8631 1.66888C23.0783 1.64144 23.2966 1.67321 23.4967 1.7611C23.6967 1.84898 23.8716 1.98996 24.0042 2.17023C24.1124 2.34354 24.1805 2.54096 24.2034 2.74681H26.0683C26.0611 2.1133 25.8269 1.50593 25.4125 1.04592C25.4012 1.03338 25.3904 1.02212 25.3791 1.01021C25.0569 0.669481 24.6701 0.40383 24.2438 0.230534C23.8175 0.0572379 23.3613 -0.0198316 22.9048 0.00433537C20.7513 0.00433537 19.3604 1.50843 19.3604 3.84292C19.3604 6.53776 21.1228 7.49725 22.6318 7.49725C23.0102 7.51951 23.389 7.46102 23.7454 7.32531C24.1018 7.1896 24.4283 6.97948 24.7054 6.70759L24.7274 7.37192H26.187V3.52016H23.3019L23.3007 4.84126Z" fill="#ED2E3D"/>
<path d="M46.8137 19.7074L46.6349 20.0045C46.2829 20.6178 45.8125 21.1469 45.254 21.5574C44.7919 21.8938 44.244 22.0758 43.6818 22.0795C43.1252 22.0935 42.5837 21.888 42.1639 21.5035C41.9431 21.269 41.7737 20.9867 41.6674 20.6763C41.5611 20.3658 41.5206 20.0348 41.5486 19.7061V17.0063H46.5741V14.1861H41.5486V9.9834H38.5431V20.0734C38.5431 20.2773 38.5504 20.4749 38.5652 20.6663C38.0888 20.9575 37.5871 21.2003 37.0669 21.3914C35.0458 22.2172 32.7964 22.1721 30.8067 21.266C30.1292 20.9241 29.5538 20.3935 29.1432 19.7318C29.5928 19.7757 30.0173 19.7945 30.409 19.7945C31.5991 19.8076 32.7835 19.621 33.9177 19.2417C34.9065 18.9245 35.8005 18.3439 36.513 17.5565C37.1762 16.7943 37.5347 15.7929 37.514 14.7602C37.5265 13.8692 37.2766 12.9961 36.7986 12.2602C36.3084 11.5253 35.6371 10.9445 34.8567 10.58C33.998 10.1759 33.0657 9.9738 32.1249 9.98778C30.9266 9.97556 29.746 10.292 28.6997 10.9059C27.6649 11.5185 26.8134 12.4225 26.2409 13.5161C25.7131 14.5834 25.4104 15.7576 25.3533 16.9589C25.2962 18.1603 25.4861 19.3604 25.91 20.4776C25.3484 20.8545 24.7469 21.1614 24.1178 21.392C22.0967 22.2178 19.8473 22.1728 17.8576 21.2666C17.18 20.9248 16.6047 20.3941 16.1941 19.7325C16.6437 19.7763 17.067 19.7951 17.4593 19.7951C18.1091 19.7965 18.758 19.7437 19.4 19.6372H19.4071C19.9368 19.5498 20.4589 19.4179 20.9686 19.243C21.9574 18.9257 22.8514 18.3452 23.5639 17.5578C24.2271 16.7955 24.5856 15.7941 24.5649 14.7614C24.5772 13.8705 24.3273 12.9974 23.8495 12.2615C23.359 11.5267 22.6878 10.946 21.9076 10.5813C21.0491 10.1772 20.1169 9.97513 19.1764 9.98904C17.9781 9.97674 16.7975 10.2932 15.7511 10.9072C14.7165 11.5196 13.8649 12.4233 13.2924 13.5168C12.8341 14.3899 12.5472 15.3508 12.4487 16.3426C11.9084 16.1858 11.3815 15.9818 10.8735 15.7328V9.98904H7.86804V19.7657C7.89615 20.0944 7.85566 20.4256 7.74938 20.7361C7.64311 21.0467 7.47362 21.3291 7.25275 21.5637C6.83298 21.9483 6.29146 22.1537 5.7348 22.1397C5.17269 22.1359 4.62475 21.9539 4.16259 21.6176C3.60415 21.207 3.13376 20.678 2.78177 20.0646L2.6029 19.7676L0.456543 21.4835L0.582938 21.7267C1.10356 22.7502 1.88575 23.6006 2.84139 24.1821C3.80297 24.7687 4.89671 25.0732 6.00846 25.0639C7.25804 25.1044 8.48033 24.6746 9.45516 23.8518C9.57786 23.7441 9.69358 23.6279 9.80155 23.504C10.3751 22.69 10.7368 21.7329 10.8509 20.7271C10.8656 20.5353 10.8729 20.3377 10.8729 20.1342V18.615C11.4255 18.8328 11.9897 19.0166 12.5626 19.1653C12.7301 20.0369 13.0642 20.8637 13.5446 21.5957C14.3103 22.7443 15.3705 23.6408 16.6019 24.1808C17.9136 24.7576 19.3233 25.047 20.745 25.0313C22.181 25.0291 23.6059 24.7659 24.9566 24.2535C25.8796 23.9094 26.7565 23.4415 27.5657 22.8616C28.1547 23.4107 28.8248 23.8552 29.5498 24.1777C30.8615 24.7545 32.2712 25.0438 33.6929 25.0281C35.1289 25.0259 36.5538 24.7628 37.9046 24.2504C38.4931 24.0291 39.0639 23.7587 39.6115 23.442C39.7194 23.5659 39.8352 23.6821 39.9579 23.7898C40.9326 24.6128 42.1549 25.0428 43.4046 25.0024C44.5163 25.0119 45.61 24.7076 46.5717 24.1213C47.5266 23.5399 48.3084 22.69 48.8289 21.6671L48.9553 21.424L46.8137 19.7074ZM16.0302 14.7815C16.3467 14.1991 16.8096 13.7195 17.3681 13.3952C17.8939 13.0782 18.4925 12.9194 19.0984 12.9361C19.7043 12.9528 20.2942 13.1444 20.8034 13.4898C21.0116 13.6281 21.1832 13.8194 21.3023 14.0459C21.4215 14.2725 21.4843 14.527 21.4849 14.7859C21.4849 15.4897 21.089 16.0136 20.2746 16.3877C18.7559 16.9988 17.1108 17.1787 15.5049 16.9091C15.5035 16.1643 15.6843 15.4316 16.0302 14.7815V14.7815ZM28.9781 14.7815C29.2946 14.1991 29.7575 13.7195 30.316 13.3952C30.842 13.0785 31.4406 12.9199 32.0466 12.9366C32.6525 12.9533 33.2425 13.1446 33.7519 13.4898C33.9601 13.6281 34.1317 13.8194 34.2508 14.0459C34.37 14.2725 34.4328 14.527 34.4334 14.7859C34.4334 15.4897 34.0375 16.0136 33.2231 16.3877C31.7044 16.9988 30.0593 17.1786 28.4534 16.9091C28.452 16.1643 28.6329 15.4316 28.9787 14.7815H28.9781Z" fill="url(#paint0_linear_7669_25521)"/>
<defs>
<linearGradient id="paint0_linear_7669_25521" x1="0.456543" y1="17.5249" x2="48.9553" y2="17.5249" gradientUnits="userSpaceOnUse">
<stop stop-color="#FF6A00"/>
<stop offset="1" stop-color="#ED2E3D"/>
</linearGradient>
</defs>
</svg>
