<svg width="27" height="31" viewBox="0 0 27 31" fill="none" xmlns="http://www.w3.org/2000/svg">
<path fill-rule="evenodd" clip-rule="evenodd" d="M18.3382 12.8713V10.6926L20.8659 8.63306H6.13379L8.66145 10.6926V12.8713H18.3382Z" fill="#4EA48E"/>
<path fill-rule="evenodd" clip-rule="evenodd" d="M6.13379 12.3502L8.66145 10.6926L6.13379 8.63306V12.3502Z" fill="#EAF4F1"/>
<path fill-rule="evenodd" clip-rule="evenodd" d="M8.66162 10.6926L6.13396 12.3503L5.33936 12.8714H8.66162V10.6926Z" fill="#4EA48E"/>
<path fill-rule="evenodd" clip-rule="evenodd" d="M18.3384 10.6926V12.8713H21.9376L20.8661 12.2227L18.3384 10.6926Z" fill="#4EA48E"/>
<path fill-rule="evenodd" clip-rule="evenodd" d="M18.3384 10.6926L20.8661 12.2227V8.63306L18.3384 10.6926Z" fill="#EAF4F1"/>
<path fill-rule="evenodd" clip-rule="evenodd" d="M21.9376 12.8713H18.3384H8.66167H5.33941L4.00781 29.8245H22.9923L21.9376 12.8713Z" fill="#4EA48E"/>
<path d="M23.5186 29.7915L22.4639 12.8383C22.4531 12.6647 22.3581 12.5074 22.2098 12.4176L21.3935 11.9234V8.63306C21.3935 8.34046 21.1573 8.10327 20.8661 8.10327H6.13401C5.84275 8.10327 5.60666 8.34046 5.60666 8.63306V12.0634L5.05116 12.4277C4.91426 12.5174 4.82656 12.6659 4.8137 12.8296L3.4821 29.7828C3.47055 29.93 3.5207 30.0755 3.62053 30.184C3.72035 30.2925 3.86073 30.3542 4.00781 30.3542H22.9922C23.1378 30.3542 23.2769 30.2938 23.3766 30.1872C23.4763 30.0806 23.5276 29.9374 23.5186 29.7915V29.7915ZM20.3387 11.285L19.2543 10.6285L20.3387 9.74492V11.285ZM20.0406 12.3416H18.8657V11.6304L20.0406 12.3416ZM19.3788 9.16284L18.0063 10.2812C17.8827 10.3818 17.8111 10.5329 17.8111 10.6926V12.3416H9.18901V10.6926C9.18901 10.533 9.11729 10.3818 8.99384 10.2812L7.62133 9.16284H19.3788ZM8.13433 12.3416H7.11202L8.13433 11.6712V12.3416ZM6.66135 9.74492L7.76761 10.6463L6.66135 11.3718V9.74492ZM4.57839 29.2947L4.66166 28.2351H7.27803C7.56928 28.2351 7.80537 27.9979 7.80537 27.7053C7.80537 27.4127 7.56928 27.1755 7.27803 27.1755H4.74488L5.82678 13.4011H21.4422L22.4309 29.2947H4.57839Z" fill="black"/>
<path d="M18.3848 14.9906H16.2754C15.9842 14.9906 15.7481 15.2278 15.7481 15.5204C15.7481 15.813 15.9842 16.0502 16.2754 16.0502H16.8028V19.2289C16.8028 20.9816 15.3834 22.4076 13.6387 22.4076C11.894 22.4076 10.4746 20.9816 10.4746 19.2289V16.0502H11.002C11.2932 16.0502 11.5293 15.813 11.5293 15.5204C11.5293 15.2278 11.2932 14.9906 11.002 14.9906H8.89258C8.60133 14.9906 8.36523 15.2278 8.36523 15.5204C8.36523 15.813 8.60133 16.0502 8.89258 16.0502H9.41992V19.2289C9.41992 21.5659 11.3125 23.4672 13.6387 23.4672C15.9649 23.4672 17.8575 21.5659 17.8575 19.2289V16.0502H18.3848C18.676 16.0502 18.9121 15.813 18.9121 15.5204C18.9121 15.2278 18.676 14.9906 18.3848 14.9906Z" fill="black"/>
<path d="M9.65088 27.1755C9.35963 27.1755 9.12354 27.4127 9.12354 27.7053C9.12354 27.9979 9.35963 28.235 9.65088 28.235H9.65125C9.9425 28.235 10.1784 27.9979 10.1784 27.7053C10.1784 27.4127 9.94213 27.1755 9.65088 27.1755Z" fill="black"/>
<path d="M15.8777 2.78275C15.557 2.46058 15.0369 2.46051 14.7161 2.78254C14.716 2.78261 14.716 2.78268 14.7159 2.78275L13.4994 4.00234L12.2823 2.77952C11.9615 2.45728 11.4412 2.45728 11.1205 2.77952C10.801 3.10049 10.801 3.61917 11.1205 3.94014L12.3406 5.16586L11.1205 6.39159C10.801 6.71255 10.801 7.23124 11.1205 7.5522C11.4412 7.87444 11.9615 7.87444 12.2823 7.5522L13.4991 6.32975L14.7159 7.5522C15.0367 7.87444 15.5569 7.87444 15.8777 7.5522C16.1972 7.23124 16.1972 6.71255 15.8777 6.39159L14.6576 5.16586L15.8777 3.94014C16.1939 3.6224 16.1939 3.10049 15.8777 2.78275Z" fill="#4EA48E" stroke="black"/>
</svg>
