<svg width="24" height="24" viewBox="0 0 24 24" fill="none" xmlns="http://www.w3.org/2000/svg">
<path d="M20.001 5.37169C20.001 4.06102 18.94 3 17.6293 3H6.27013C4.95946 3 3.89844 4.06102 3.89844 5.37169V19.3106C3.89844 20.6213 4.95946 21.6823 6.27013 21.6823H17.6293C18.94 21.6823 20.001 20.6213 20.001 19.3106V5.37169ZM9.09952 4.41469H14.7583V5.85435C14.7583 6.15393 14.5253 6.41191 14.2257 6.41191H9.63211C9.33252 6.41191 9.09952 6.15393 9.09952 5.85435V4.41469ZM5.31313 5.38417C5.31313 4.85574 5.72506 4.41469 6.25349 4.41469H7.68482V5.85435C7.68482 6.93202 8.55028 7.8266 9.63211 7.8266H14.2299C15.3075 7.8266 16.1771 6.93202 16.1771 5.85435V4.41469H17.6085C18.1369 4.41469 18.5488 4.85574 18.5488 5.38417V19.3397C18.5488 19.8681 18.1369 20.3092 17.6085 20.3092H6.25349C5.72506 20.3092 5.31313 19.8681 5.31313 19.3397V5.38417Z" fill="#4E5766"/>
<path d="M7.91828 11.903H11.3635C11.7546 11.903 12.0708 11.5868 12.0708 11.1956C12.0708 10.8045 11.7546 10.4883 11.3635 10.4883H7.91828C7.52716 10.4883 7.21094 10.8045 7.21094 11.1956C7.21094 11.5868 7.52716 11.903 7.91828 11.903Z" fill="#4E5766"/>
<path d="M7.91828 14.817H15.9404C16.3315 14.817 16.6478 14.5008 16.6478 14.1097C16.6478 13.7186 16.3315 13.4023 15.9404 13.4023H7.91828C7.52716 13.4023 7.21094 13.7186 7.21094 14.1097C7.21094 14.5008 7.52716 14.817 7.91828 14.817Z" fill="#4E5766"/>
<path d="M7.91828 17.7301H15.9404C16.3315 17.7301 16.6478 17.4139 16.6478 17.0228C16.6478 16.6317 16.3315 16.3154 15.9404 16.3154H7.91828C7.52716 16.3154 7.21094 16.6317 7.21094 17.0228C7.21094 17.4139 7.52716 17.7301 7.91828 17.7301Z" fill="#4E5766"/>
</svg>
