<svg width="24" height="18" viewBox="0 0 24 18" fill="none" xmlns="http://www.w3.org/2000/svg">
<g clip-path="url(#clip0_7621_24082)">
<path d="M4.2004 17.9605V16.7659C4.2004 16.3089 3.92205 16.0097 3.44422 16.0097C3.2053 16.0097 2.94551 16.0886 2.7669 16.3484C2.62772 16.1303 2.42824 16.0097 2.12901 16.0097C1.92953 16.0097 1.73004 16.07 1.57231 16.2881V16.0492H1.15479V17.9605H1.57231V16.9051C1.57231 16.5664 1.75092 16.4064 2.02927 16.4064C2.30762 16.4064 2.4468 16.585 2.4468 16.9051V17.9605H2.86432V16.9051C2.86432 16.5664 3.06381 16.4064 3.32128 16.4064C3.59963 16.4064 3.73881 16.585 3.73881 16.9051V17.9605H4.2004ZM10.3937 16.0492H9.71638V15.4716H9.29886V16.0492H8.92076V16.4272H9.29886V17.3041C9.29886 17.7425 9.47747 17.9999 9.9553 17.9999C10.1339 17.9999 10.3334 17.9396 10.4726 17.8608L10.3519 17.5012C10.2313 17.5801 10.0922 17.601 9.99241 17.601C9.79293 17.601 9.71406 17.4803 9.71406 17.2832V16.4272H10.3914V16.0492H10.3937ZM13.938 16.0074C13.6991 16.0074 13.5391 16.128 13.4393 16.2858V16.0468H13.0218V17.9582H13.4393V16.8819C13.4393 16.5641 13.5785 16.3832 13.8383 16.3832C13.9172 16.3832 14.0169 16.4041 14.0981 16.4226L14.2187 16.0236C14.1352 16.0074 14.0169 16.0074 13.938 16.0074ZM8.5821 16.2069C8.38262 16.0677 8.10427 16.0074 7.80504 16.0074C7.32721 16.0074 7.00942 16.2463 7.00942 16.6244C7.00942 16.9422 7.24834 17.1231 7.66587 17.1811L7.86535 17.202C8.08339 17.2414 8.20401 17.3017 8.20401 17.4015C8.20401 17.5406 8.04396 17.6404 7.76561 17.6404C7.48726 17.6404 7.2669 17.5406 7.12772 17.4409L6.92824 17.7587C7.14628 17.9187 7.44551 17.9976 7.74473 17.9976C8.30143 17.9976 8.62154 17.7378 8.62154 17.3806C8.62154 17.0419 8.36174 16.8633 7.96509 16.803L7.76561 16.7821C7.587 16.7613 7.44783 16.7218 7.44783 16.6035C7.44783 16.4644 7.587 16.3855 7.80736 16.3855C8.04628 16.3855 8.2852 16.4852 8.40582 16.5455L8.5821 16.2069ZM19.6906 16.0074C19.4517 16.0074 19.2916 16.128 19.1919 16.2858V16.0468H18.7744V17.9582H19.1919V16.8819C19.1919 16.5641 19.3311 16.3832 19.5909 16.3832C19.6697 16.3832 19.7695 16.4041 19.8507 16.4226L19.9713 16.0283C19.8901 16.0074 19.7718 16.0074 19.6906 16.0074ZM14.3556 17.0048C14.3556 17.5824 14.7545 17.9999 15.3715 17.9999C15.6499 17.9999 15.8494 17.9396 16.0489 17.7819L15.8494 17.4432C15.6893 17.5638 15.5316 17.6218 15.3507 17.6218C15.012 17.6218 14.7731 17.3829 14.7731 17.0048C14.7731 16.6453 15.012 16.4064 15.3507 16.3878C15.5293 16.3878 15.6893 16.4481 15.8494 16.5664L16.0489 16.2278C15.8494 16.0677 15.6499 16.0097 15.3715 16.0097C14.7545 16.0074 14.3556 16.4272 14.3556 17.0048ZM18.2177 17.0048V16.0492H17.8001V16.2881C17.661 16.1095 17.4615 16.0097 17.2017 16.0097C16.6635 16.0097 16.246 16.4272 16.246 17.0048C16.246 17.5824 16.6635 17.9999 17.2017 17.9999C17.48 17.9999 17.6795 17.9002 17.8001 17.7216V17.9605H18.2177V17.0048ZM16.6844 17.0048C16.6844 16.6662 16.9025 16.3878 17.262 16.3878C17.6007 16.3878 17.8396 16.6476 17.8396 17.0048C17.8396 17.3435 17.6007 17.6218 17.262 17.6218C16.9048 17.601 16.6844 17.3412 16.6844 17.0048ZM11.688 16.0074C11.1313 16.0074 10.7324 16.4064 10.7324 17.0025C10.7324 17.601 11.1313 17.9976 11.7089 17.9976C11.9873 17.9976 12.2656 17.9187 12.486 17.7378L12.2865 17.4386C12.1264 17.5592 11.9269 17.6381 11.7298 17.6381C11.47 17.6381 11.2125 17.5175 11.1522 17.1811H12.5648C12.5648 17.1208 12.5648 17.0814 12.5648 17.0211C12.5834 16.4064 12.2239 16.0074 11.688 16.0074ZM11.688 16.3669C11.9478 16.3669 12.1264 16.527 12.1659 16.8239H11.1708C11.2102 16.5664 11.3888 16.3669 11.688 16.3669ZM22.0612 17.0048V15.293H21.6437V16.2881C21.5045 16.1095 21.305 16.0097 21.0452 16.0097C20.5071 16.0097 20.0896 16.4272 20.0896 17.0048C20.0896 17.5824 20.5071 17.9999 21.0452 17.9999C21.3236 17.9999 21.5231 17.9002 21.6437 17.7216V17.9605H22.0612V17.0048ZM20.528 17.0048C20.528 16.6662 20.746 16.3878 21.1056 16.3878C21.4442 16.3878 21.6831 16.6476 21.6831 17.0048C21.6831 17.3435 21.4442 17.6218 21.1056 17.6218C20.746 17.601 20.528 17.3412 20.528 17.0048ZM6.55015 17.0048V16.0492H6.13262V16.2881C5.99344 16.1095 5.79396 16.0097 5.53417 16.0097C4.99602 16.0097 4.5785 16.4272 4.5785 17.0048C4.5785 17.5824 4.99602 17.9999 5.53417 17.9999C5.81252 17.9999 6.012 17.9002 6.13262 17.7216V17.9605H6.55015V17.0048ZM4.99834 17.0048C4.99834 16.6662 5.21638 16.3878 5.57592 16.3878C5.91458 16.3878 6.1535 16.6476 6.1535 17.0048C6.1535 17.3435 5.91458 17.6218 5.57592 17.6218C5.21638 17.601 4.99834 17.3412 4.99834 17.0048Z" fill="black"/>
<path d="M14.7155 1.53308H8.44336V12.8016H14.7155V1.53308Z" fill="#FF5A00"/>
<path d="M8.86082 7.16752C8.86082 4.87809 9.93711 2.84613 11.5887 1.53325C10.3732 0.577577 8.83995 0 7.16753 0C3.20567 0 0 3.20567 0 7.16752C0 11.1294 3.20567 14.335 7.16753 14.335C8.83995 14.335 10.3732 13.7575 11.5887 12.8018C9.93479 11.5075 8.86082 9.45696 8.86082 7.16752Z" fill="#EB001B"/>
<path d="M23.1775 7.16752C23.1775 11.1294 19.9719 14.335 16.01 14.335C14.3376 14.335 12.8043 13.7575 11.5889 12.8018C13.2613 11.4866 14.3167 9.45696 14.3167 7.16752C14.3167 4.87809 13.2404 2.84613 11.5889 1.53325C12.802 0.577577 14.3353 0 16.0077 0C19.9719 0 23.1775 3.22655 23.1775 7.16752Z" fill="#F79E1B"/>
</g>
<defs>
<clipPath id="clip0_7621_24082">
<rect width="23.1773" height="18" fill="white"/>
</clipPath>
</defs>
</svg>
