<?xml version="1.0" encoding="UTF-8"?>
<!DOCTYPE svg PUBLIC "-//W3C//DTD SVG 1.0//EN" "http://www.w3.org/TR/2001/REC-SVG-20010904/DTD/svg10.dtd">
<!-- Creator: CorelDRAW 2021.5 -->
<svg xmlns="http://www.w3.org/2000/svg" xml:space="preserve" width="91.44mm" height="91.44mm" version="1.0" style="shape-rendering:geometricPrecision; text-rendering:geometricPrecision; image-rendering:optimizeQuality; fill-rule:evenodd; clip-rule:evenodd"
viewBox="0 0 9144 9144"
 xmlns:xlink="http://www.w3.org/1999/xlink"
 xmlns:xodm="http://www.corel.com/coreldraw/odm/2003">
 <defs>
  <style type="text/css">
   <![CDATA[
    .fil0 {fill:black}
   ]]>
  </style>
 </defs>
 <g id="Layer_x0020_1">
  <metadata id="CorelCorpID_0Corel-Layer"/>
  <path class="fil0" d="M8895.98 4571.99c0,2388.03 -1935.95,4323.98 -4323.97,4323.98 -2388.03,0 -4323.98,-1935.95 -4323.98,-4323.98 0,-2388.02 1935.95,-4323.97 4323.98,-4323.97 2388.02,0 4323.97,1935.95 4323.97,4323.97zm-3941.77 -2048.71c160.16,-150.96 418.77,-150.96 578.72,0 155.87,146.88 159.95,394.67 0,545.43l-1592.35 1501.45 1592.35 1505.12c159.95,150.76 159.95,394.67 0,545.43 -159.95,150.96 -418.56,150.96 -578.72,0l-1883.66 -1776c-159.95,-150.76 -159.95,-394.67 0,-545.43l1883.66 -1776z"/>
 </g>
</svg>
