<svg width="20" height="20" viewBox="0 0 20 20" fill="none" xmlns="http://www.w3.org/2000/svg">
<path fill-rule="evenodd" clip-rule="evenodd" d="M20 10C20 15.5228 15.5228 20 10 20C4.47715 20 0 15.5228 0 10C0 4.47715 4.47715 0 10 0C15.5228 0 20 4.47715 20 10ZM14.5075 6.77625L10.9014 10.2826L14.5075 13.7889C14.756 14.0306 14.7552 14.4232 14.5068 14.6647C14.258 14.9068 13.8552 14.9076 13.606 14.6654L10 11.159L6.39398 14.6654C6.14542 14.907 5.74163 14.9063 5.49323 14.6647C5.24433 14.4227 5.24346 14.0312 5.49262 13.7889L9.09871 10.2826L5.49262 6.77625C5.24406 6.53456 5.24483 6.14194 5.49323 5.90041C5.74214 5.65839 6.14482 5.65754 6.39398 5.89982L10 9.4061L13.606 5.89982C13.8546 5.65813 14.2585 5.65889 14.5068 5.90041C14.7557 6.14244 14.7566 6.53397 14.5075 6.77625Z" fill="black"/>
</svg>
