<svg width="27" height="22" viewBox="0 0 27 22" fill="none" xmlns="http://www.w3.org/2000/svg">
<path d="M26.999 2.93704C26.042 3.36204 25.014 3.64804 23.935 3.77704C25.037 3.11704 25.882 2.07204 26.28 0.826035C25.25 1.43704 24.108 1.88104 22.892 2.12104C21.919 1.08404 20.533 0.436035 18.999 0.436035C16.053 0.436035 13.665 2.82504 13.665 5.77004C13.665 6.18804 13.713 6.59604 13.803 6.98503C9.37005 6.76303 5.44005 4.63904 2.80805 1.41104C2.35005 2.19904 2.08705 3.11504 2.08705 4.09404C2.08705 5.94404 3.02805 7.57704 4.45905 8.53304C3.58505 8.50504 2.76205 8.26504 2.04305 7.86604C2.04305 7.88904 2.04305 7.91004 2.04305 7.93303C2.04305 10.518 3.88105 12.674 6.32205 13.163C5.87505 13.285 5.40305 13.35 4.91605 13.35C4.57305 13.35 4.23805 13.316 3.91305 13.255C4.59205 15.374 6.56205 16.917 8.89605 16.96C7.07105 18.391 4.77105 19.244 2.27105 19.244C1.84105 19.244 1.41605 19.219 0.998047 19.169C3.35905 20.682 6.16205 21.565 9.17505 21.565C18.987 21.565 24.351 13.437 24.351 6.38803C24.351 6.15703 24.346 5.92704 24.336 5.69804C25.379 4.94503 26.284 4.00604 26.999 2.93704Z" fill="black"/>
</svg>
