<svg width="24" height="24" viewBox="0 0 24 24" fill="none" xmlns="http://www.w3.org/2000/svg">
<path fill-rule="evenodd" clip-rule="evenodd" d="M2 12C2 6.47715 6.47715 2 12 2C17.5228 2 22 6.47715 22 12C22 17.5228 17.5228 22 12 22C6.47715 22 2 17.5228 2 12ZM13.4011 7.45386H14.2358C14.5074 7.45386 14.7275 7.69393 14.7275 7.99008V16.0085C14.7275 16.3047 14.5074 16.5448 14.2358 16.5448H13.4011C13.1295 16.5448 12.9094 16.3047 12.9094 16.0085V7.99008C12.9094 7.69393 13.1295 7.45386 13.4011 7.45386ZM10.5991 7.45386H9.76435C9.49278 7.45386 9.27264 7.69393 9.27264 7.99008V16.0085C9.27264 16.3047 9.49278 16.5448 9.76435 16.5448H10.5991C10.8707 16.5448 11.0908 16.3047 11.0908 16.0085V7.99008C11.0908 7.69393 10.8707 7.45386 10.5991 7.45386Z" fill="black"/>
</svg>
