<svg width="24" height="24" viewBox="0 0 24 24" fill="none" xmlns="http://www.w3.org/2000/svg">
<path d="M11.9996 21.9983C13.0996 21.9983 13.9996 21.0983 13.9996 19.9983H9.99956C9.99956 21.0983 10.8896 21.9983 11.9996 21.9983ZM17.9996 15.9983V10.9983C17.9996 7.92829 16.3596 5.35829 13.4996 4.67829V3.99829C13.4996 3.16829 12.8296 2.49829 11.9996 2.49829C11.1696 2.49829 10.4996 3.16829 10.4996 3.99829V4.67829C7.62956 5.35829 5.99956 7.91829 5.99956 10.9983V15.9983L4.70956 17.2883C4.07956 17.9183 4.51956 18.9983 5.40956 18.9983H18.5796C19.4696 18.9983 19.9196 17.9183 19.2896 17.2883L17.9996 15.9983Z" fill="black"/>
</svg>
