<svg width="24" height="24" viewBox="0 0 24 24" fill="none" xmlns="http://www.w3.org/2000/svg">
<path fill-rule="evenodd" clip-rule="evenodd" d="M20 6H19V14C19 14.55 18.55 15 18 15H6V16C6 17.1 6.9 18 8 18H18L22 22V8C22 6.9 21.1 6 20 6ZM17 11V4C17 2.9 16.1 2 15 2H4C2.9 2 2 2.9 2 4V17L6 13H15C16.1 13 17 12.1 17 11ZM10.5992 8.21703C10.5992 8.52443 10.35 8.77361 10.0426 8.77361H9.96275C9.61126 8.77361 9.32632 8.48867 9.32632 8.13718V7.28898C9.32632 6.93749 9.61126 6.65256 9.96275 6.65256C10.0992 6.65256 10.2326 6.61209 10.346 6.53629C10.4595 6.46048 10.5479 6.35274 10.6001 6.22668C10.6523 6.10061 10.666 5.9619 10.6394 5.82808C10.6128 5.69425 10.5471 5.57132 10.4506 5.47484C10.3541 5.37836 10.2312 5.31265 10.0973 5.28603C9.96351 5.25941 9.8248 5.27308 9.69874 5.32529C9.57268 5.37751 9.46493 5.46593 9.38913 5.57938C9.26444 5.76599 9.09092 5.96267 8.86649 5.96267H8.63644C8.28495 5.96267 7.99031 5.67049 8.10231 5.33732C8.14875 5.19919 8.21063 5.06605 8.28721 4.94052C8.47503 4.63266 8.74405 4.38249 9.06472 4.21749C9.38539 4.05249 9.74532 3.97902 10.105 4.00516C10.4647 4.0313 10.8102 4.15603 11.1037 4.36566C11.3971 4.57529 11.6271 4.86172 11.7685 5.1935C11.9098 5.52528 11.957 5.88959 11.9049 6.24643C11.8528 6.60328 11.7033 6.93886 11.473 7.21635C11.3278 7.39133 11.1539 7.53894 10.9597 7.65344C10.7548 7.77425 10.5992 7.9792 10.5992 8.21703ZM9.92805 9.79666C9.59576 9.79666 9.32639 10.066 9.32639 10.3983C9.32639 10.7306 9.59576 11 9.92805 11H9.99758C10.3299 11 10.5992 10.7306 10.5992 10.3983C10.5992 10.066 10.3299 9.79666 9.99758 9.79666H9.92805Z" fill="#324154"/>
</svg>
