<?xml version="1.0" encoding="utf-8"?>
<!-- Generator: Adobe Illustrator 26.1.0, SVG Export Plug-In . SVG Version: 6.00 Build 0)  -->
<svg version="1.1" id="Layer_1" xmlns="http://www.w3.org/2000/svg" xmlns:xlink="http://www.w3.org/1999/xlink" x="0px" y="0px"
	 viewBox="0 0 24 24" style="enable-background:new 0 0 24 24;" xml:space="preserve">
<style type="text/css">
	.st0{fill:#324154;}
</style>
<path class="st0" d="M19.7,20.6h-0.6v-1.5c0,0,0,0,0,0s0,0,0,0v-1.5h0.3c0.2,0,0.4-0.1,0.6-0.2c0.2-0.2,0.2-0.4,0.2-0.6V3.2
	c0-0.2-0.1-0.4-0.2-0.6c-0.2-0.2-0.4-0.2-0.6-0.2H6.3C5.6,2.4,5,2.7,4.5,3.1C4.1,3.6,3.8,4.2,3.8,4.9v14.2c0,0,0,0.1,0,0.1
	c0,0.6,0.3,1.2,0.7,1.6c0.5,0.5,1.1,0.7,1.7,0.7h12.3c0,0,0,0,0,0h1.1c0.3,0,0.5-0.2,0.5-0.5S20,20.6,19.7,20.6z M8.1,3.4h2.6v4.3
	L9.7,7C9.5,6.9,9.3,6.9,9.1,7l-1,0.7V3.4z M18.1,18.6H7.3c-0.3,0-0.5,0.2-0.5,0.5s0.2,0.5,0.5,0.5h10.9v1H6.3c-0.4,0-0.8-0.2-1-0.4
	s-0.4-0.7-0.4-1s0.2-0.8,0.4-1c0.3-0.3,0.7-0.4,1-0.4h11.9V18.6z"/>
</svg>
