<svg width="24" height="24" viewBox="0 0 24 24" fill="none" xmlns="http://www.w3.org/2000/svg">
<path d="M18.1211 16.6416V20.5791H5.76719C5.24504 20.5791 4.74428 20.3717 4.37507 20.0025C4.00586 19.6333 3.79844 19.1325 3.79844 18.6104V18.6104C3.79844 18.0882 4.00586 17.5874 4.37507 17.2182C4.74428 16.849 5.24504 16.6416 5.76719 16.6416H18.1211Z" fill="white" stroke="#324154" stroke-width="0.984375" stroke-linecap="round" stroke-linejoin="round"/>
<path d="M19.207 16.3136C19.207 16.4006 19.1725 16.4841 19.1109 16.5456C19.0494 16.6071 18.9659 16.6417 18.8789 16.6417H5.75391C5.23176 16.6417 4.731 16.8491 4.36179 17.2183C3.99258 17.5875 3.78516 18.0883 3.78516 18.6105V4.38623C3.78516 3.86409 3.99258 3.36333 4.36179 2.99411C4.731 2.6249 5.23176 2.41748 5.75391 2.41748H18.8789C18.9659 2.41748 19.0494 2.45205 19.1109 2.51359C19.1725 2.57512 19.207 2.65858 19.207 2.74561V16.3136Z" fill="#324154" stroke="#324154" stroke-width="0.984375" stroke-linecap="round" stroke-linejoin="round"/>
<path d="M18.1214 18.6169H6.76172" stroke="#324154" stroke-width="0.984375" stroke-linecap="round" stroke-linejoin="round"/>
<path d="M10.6953 8.20558L8.89062 6.90948L7.08594 8.20558V2.41089H10.6953V8.20558Z" fill="white" stroke="#324154" stroke-width="0.984375" stroke-linecap="round" stroke-linejoin="round"/>
<path d="M19.2072 20.5891H18.1211" stroke="#324154" stroke-width="0.984375" stroke-linecap="round" stroke-linejoin="round"/>
</svg>
