<svg width="24" height="24" viewBox="0 0 24 24" fill="none" xmlns="http://www.w3.org/2000/svg">
<path d="M22.9777 5.07398C23.2575 5.07398 23.4843 4.84719 23.4843 4.56744C23.4843 4.28769 23.2575 4.06091 22.9777 4.06091C22.698 4.06091 22.4712 4.28769 22.4712 4.56744C22.4712 4.84719 22.698 5.07398 22.9777 5.07398Z" fill="black"/>
<path d="M6.30911 8.37529L5.06396 9.16696L6.5844 11.5582L9.15128 9.92624L7.63079 7.53491L6.32926 8.36254C6.3227 8.36722 6.31595 8.3713 6.30911 8.37529V8.37529Z" fill="black"/>
<path d="M1.96933 8.51666C1.90906 8.78744 1.95881 9.07107 2.10764 9.30516C2.25648 9.53926 2.4922 9.70464 2.76297 9.76495L2.96749 9.81051L4.52223 8.83588C4.53952 8.8251 4.55793 8.81622 4.57712 8.8094L5.49034 8.2288L3.21766 7.72302C2.9469 7.66306 2.66342 7.71294 2.42939 7.86172C2.19537 8.01051 2.02991 8.24604 1.96933 8.51666V8.51666Z" fill="black"/>
<path d="M8.5435 3.56822C8.27273 3.50793 7.98909 3.55767 7.75499 3.70651C7.5209 3.85535 7.35551 4.09108 7.29522 4.36186L6.58984 7.53009L7.51521 6.94172C7.52961 6.92713 7.54556 6.91416 7.56278 6.90304L9.10549 5.92462L9.33639 4.82011C9.39722 4.54896 9.34786 4.26475 9.19917 4.02998C9.05048 3.79522 8.81464 3.62912 8.5435 3.56822V3.56822Z" fill="black"/>
<path d="M12.433 4.87595C12.3512 4.85769 12.2676 4.84845 12.1838 4.84839C11.9685 4.84852 11.7577 4.91023 11.5763 5.02623L8.10547 7.23306L9.62595 9.62434L14.0556 6.80781L13.1449 5.3755C13.0652 5.24931 12.9612 5.14018 12.839 5.05444C12.7168 4.96869 12.5788 4.90803 12.433 4.87595V4.87595Z" fill="black"/>
<path d="M4.58908 9.46875L1.04228 11.7239C0.788219 11.8858 0.608769 12.1419 0.543301 12.436C0.477833 12.7301 0.531693 13.0382 0.693064 13.2926L1.6037 14.7249L6.10956 11.86L4.58908 9.46875Z" fill="black"/>
<path d="M11.1948 22.9785H14.8354C15.1367 22.9782 15.4255 22.8584 15.6386 22.6453C15.8516 22.4323 15.9715 22.1434 15.9718 21.8421V14.5066H11.1948V22.9785Z" fill="black"/>
<path d="M3.21889 21.8421C3.21924 22.1434 3.33908 22.4323 3.55213 22.6453C3.76518 22.8584 4.05403 22.9782 4.35533 22.9785H7.05781V14.5066H3.21875L3.21889 21.8421Z" fill="black"/>
<path d="M7.62012 14.5066H10.6325V22.9785H7.62012V14.5066Z" fill="black"/>
<path d="M19.398 11.3892L19.5325 10.6048C19.5414 10.5531 19.5356 10.4999 19.5158 10.4513C19.4961 10.4027 19.4631 10.3606 19.4206 10.3297C19.3782 10.2989 19.3279 10.2805 19.2756 10.2768C19.2232 10.273 19.1709 10.2839 19.1244 10.3083L18.42 10.6787L17.7156 10.3083C17.6691 10.2839 17.6167 10.273 17.5644 10.2767C17.512 10.2805 17.4618 10.2989 17.4193 10.3297C17.3768 10.3606 17.3439 10.4027 17.3241 10.4513C17.3043 10.4999 17.2985 10.5531 17.3074 10.6048L17.442 11.3892L16.872 11.9448C16.8345 11.9814 16.8079 12.0278 16.7953 12.0788C16.7827 12.1297 16.7847 12.1832 16.8009 12.2331C16.8171 12.283 16.847 12.3274 16.8871 12.3612C16.9272 12.395 16.976 12.4169 17.0279 12.4245L17.8154 12.539L18.1677 13.2526C18.1909 13.2997 18.2268 13.3393 18.2714 13.367C18.316 13.3948 18.3674 13.4095 18.4199 13.4095C18.4724 13.4095 18.5238 13.3948 18.5684 13.367C18.613 13.3393 18.6489 13.2997 18.6721 13.2526L19.0243 12.539L19.8118 12.4245C19.8637 12.4169 19.9125 12.395 19.9526 12.3612C19.9928 12.3273 20.0226 12.283 20.0388 12.2331C20.055 12.1831 20.057 12.1297 20.0444 12.0787C20.0318 12.0278 20.0052 11.9814 19.9677 11.9448L19.398 11.3892Z" fill="black"/>
<path d="M22.6327 7.514L21.8593 7.32603L21.5756 6.58246C21.557 6.53341 21.5249 6.49057 21.4831 6.45879C21.4414 6.42701 21.3915 6.40755 21.3393 6.40261C21.287 6.39768 21.2344 6.40746 21.1875 6.43086C21.1405 6.45426 21.101 6.49034 21.0734 6.53502L20.6557 7.2125L19.8609 7.25244C19.8085 7.25508 19.7578 7.27232 19.7147 7.30223C19.6716 7.33214 19.6377 7.37351 19.6169 7.42167C19.596 7.46984 19.5891 7.52287 19.5968 7.57477C19.6046 7.62667 19.6266 7.67537 19.6606 7.71537L20.1758 8.32203L19.9685 9.09026C19.9548 9.14093 19.9556 9.19442 19.9707 9.24468C19.9858 9.29494 20.0147 9.33997 20.0541 9.37468C20.0934 9.40938 20.1417 9.43238 20.1935 9.44107C20.2453 9.44975 20.2984 9.44378 20.347 9.42382L21.0829 9.12129L21.7495 9.55615C21.7935 9.58483 21.8446 9.60063 21.897 9.60178C21.9495 9.60292 22.0012 9.58937 22.0464 9.56264C22.0916 9.53592 22.1284 9.49709 22.1526 9.45055C22.1768 9.404 22.1876 9.35161 22.1836 9.29928L22.1234 8.50573L22.7428 8.00619C22.7837 7.97325 22.8145 7.92954 22.8318 7.88C22.8491 7.83047 22.8522 7.77708 22.8407 7.72588C22.8293 7.67468 22.8037 7.6277 22.767 7.59026C22.7302 7.55282 22.6837 7.5264 22.6327 7.514V7.514Z" fill="black"/>
<path d="M21.1616 2.34589C21.1501 2.29467 21.1246 2.24769 21.0878 2.21023C21.051 2.17278 21.0045 2.14637 20.9535 2.13397L20.1801 1.946L19.8965 1.20242C19.8778 1.15338 19.8457 1.11055 19.804 1.07877C19.7622 1.04699 19.7124 1.02754 19.6601 1.02261C19.6079 1.01768 19.5553 1.02746 19.5083 1.05087C19.4613 1.07427 19.4218 1.11035 19.3943 1.15503L18.9766 1.83252L18.1817 1.87245C18.1293 1.87508 18.0787 1.89232 18.0355 1.92223C17.9924 1.95213 17.9585 1.9935 17.9377 2.04167C17.9168 2.08983 17.9099 2.14286 17.9176 2.19477C17.9253 2.24668 17.9474 2.29539 17.9814 2.33539L18.4969 2.942L18.2893 3.71033C18.2756 3.76099 18.2764 3.81447 18.2915 3.86473C18.3066 3.91498 18.3355 3.96 18.3748 3.9947C18.4142 4.0294 18.4625 4.05239 18.5143 4.06108C18.566 4.06976 18.6192 4.06379 18.6677 4.04384L19.4036 3.74131L20.0703 4.17626C20.1142 4.20494 20.1653 4.22074 20.2178 4.22189C20.2703 4.22303 20.322 4.20948 20.3672 4.18275C20.4123 4.15603 20.4491 4.1172 20.4734 4.07066C20.4976 4.02411 20.5083 3.97172 20.5044 3.91939L20.4441 3.12575L21.0636 2.6262C21.1044 2.59327 21.1353 2.54956 21.1526 2.50003C21.1699 2.45049 21.173 2.3971 21.1616 2.34589V2.34589Z" fill="black"/>
<path d="M16.3208 11.0333C14.958 10.6961 13.977 11.0627 13.394 11.4297C12.7593 11.8293 12.4488 12.3135 12.4358 12.334C12.3959 12.397 12.3826 12.4733 12.3989 12.5461C12.4152 12.6189 12.4597 12.6822 12.5227 12.7221C12.5857 12.7621 12.662 12.7754 12.7348 12.7591C12.8076 12.7428 12.8709 12.6982 12.9109 12.6352C12.9531 12.5696 13.9706 11.0314 16.1855 11.5793C16.2215 11.5886 16.259 11.5906 16.2957 11.5853C16.3325 11.58 16.3679 11.5675 16.3998 11.5484C16.4317 11.5294 16.4595 11.5042 16.4816 11.4744C16.5037 11.4445 16.5197 11.4106 16.5286 11.3745C16.5376 11.3384 16.5393 11.301 16.5336 11.2642C16.528 11.2275 16.5151 11.1923 16.4958 11.1605C16.4764 11.1288 16.451 11.1012 16.421 11.0794C16.3909 11.0576 16.3568 11.0419 16.3207 11.0333H16.3208Z" fill="black"/>
<path d="M13.2207 10.0435C13.2039 10.0766 13.1939 10.1127 13.1912 10.1497C13.1885 10.1867 13.1931 10.2239 13.2048 10.2591C13.2165 10.2943 13.2351 10.3269 13.2594 10.3549C13.2837 10.3829 13.3134 10.4058 13.3466 10.4223C13.3798 10.4388 13.416 10.4486 13.453 10.451C13.4901 10.4535 13.5272 10.4486 13.5623 10.4366C13.5975 10.4247 13.6299 10.4059 13.6577 10.3813C13.6855 10.3568 13.7082 10.327 13.7245 10.2936C14.0345 9.72899 14.4561 9.23339 14.9639 8.83703C16.0555 7.9967 17.3229 7.86672 18.7308 8.4512C18.7649 8.46536 18.8015 8.47266 18.8384 8.47269C18.8753 8.47271 18.9119 8.46546 18.9461 8.45135C18.9802 8.43724 19.0112 8.41654 19.0373 8.39044C19.0635 8.36434 19.0842 8.33335 19.0984 8.29923C19.1125 8.26512 19.1198 8.22855 19.1199 8.19161C19.1199 8.15468 19.1126 8.1181 19.0985 8.08396C19.0844 8.04983 19.0637 8.01881 19.0376 7.99267C19.0115 7.96654 18.9805 7.9458 18.9464 7.93164C16.9442 7.10068 15.489 7.72295 14.6208 8.39134C14.0448 8.83928 13.5681 9.40186 13.2207 10.0435V10.0435Z" fill="black"/>
<path d="M15.9243 6.18646C15.8534 6.16354 15.7762 6.16975 15.7098 6.20374C15.6434 6.23772 15.5932 6.29669 15.5703 6.36768C15.5473 6.43867 15.5535 6.51585 15.5875 6.58226C15.6215 6.64866 15.6805 6.69885 15.7515 6.72177C16.1387 6.83586 16.5402 6.89389 16.9439 6.89409C17.4142 6.89409 17.9575 6.80915 18.4446 6.52045C19.0821 6.14273 19.4909 5.49918 19.6602 4.60795C19.6671 4.57166 19.6668 4.53437 19.6593 4.49821C19.6518 4.46205 19.6372 4.42772 19.6164 4.39718C19.5957 4.36665 19.5691 4.34051 19.5382 4.32025C19.5073 4.29999 19.4727 4.28602 19.4365 4.27912C19.4002 4.27222 19.3629 4.27254 19.3267 4.28005C19.2906 4.28756 19.2562 4.30213 19.2257 4.32291C19.1952 4.34369 19.169 4.37028 19.1488 4.40116C19.1285 4.43204 19.1145 4.46661 19.1076 4.5029C18.9699 5.22763 18.6512 5.74321 18.1602 6.03529C17.2264 6.59057 15.9446 6.19293 15.9243 6.18646V6.18646Z" fill="black"/>
<path d="M11.8527 13.6346C12.1325 13.6346 12.3593 13.4079 12.3593 13.1281C12.3593 12.8484 12.1325 12.6216 11.8527 12.6216C11.573 12.6216 11.3462 12.8484 11.3462 13.1281C11.3462 13.4079 11.573 13.6346 11.8527 13.6346Z" fill="black"/>
<path d="M15.8381 4.44714C16.1178 4.44714 16.3446 4.22036 16.3446 3.94061C16.3446 3.66086 16.1178 3.43408 15.8381 3.43408C15.5583 3.43408 15.3315 3.66086 15.3315 3.94061C15.3315 4.22036 15.5583 4.44714 15.8381 4.44714Z" fill="black"/>
<path d="M11.1389 11.2891C11.4186 11.2891 11.6454 11.0623 11.6454 10.7825C11.6454 10.5028 11.4186 10.276 11.1389 10.276C10.8591 10.276 10.6323 10.5028 10.6323 10.7825C10.6323 11.0623 10.8591 11.2891 11.1389 11.2891Z" fill="black"/>
<path d="M22.1437 12.1136C22.4235 12.1136 22.6503 11.8869 22.6503 11.6071C22.6503 11.3274 22.4235 11.1006 22.1437 11.1006C21.864 11.1006 21.6372 11.3274 21.6372 11.6071C21.6372 11.8869 21.864 12.1136 22.1437 12.1136Z" fill="black"/>
</svg>
