<svg width="20" height="20" viewBox="0 0 20 20" fill="none" xmlns="http://www.w3.org/2000/svg">
<path fill-rule="evenodd" clip-rule="evenodd" d="M20 10C20 15.5228 15.5228 20 10 20C4.47715 20 0 15.5228 0 10C0 4.47715 4.47715 0 10 0C15.5228 0 20 4.47715 20 10ZM10.8632 3.23837L15.1366 5.83197C15.6692 6.15498 16.0001 6.75734 16 7.40396V12.5911C16 13.2376 15.6692 13.8399 15.1366 14.1633L10.8634 16.7567C10.6012 16.9157 10.3027 16.9999 10 16.9999C9.69731 16.9999 9.39877 16.9157 9.13662 16.7565L4.86338 14.1631C4.33091 13.8398 4 13.2374 4 12.591V7.40396C4 6.75749 4.33077 6.15513 4.86353 5.83197L9.13647 3.23837C9.66078 2.92048 10.3392 2.92048 10.8632 3.23837ZM14.6354 13.2504C14.8586 13.1149 14.9974 12.8622 14.9974 12.5911H14.9972V7.40396C14.9972 7.1329 14.8587 6.88022 14.6354 6.74484L10.362 4.15124C10.2523 4.08453 10.1269 4.04929 10 4.04929C9.87308 4.04929 9.74787 4.08468 9.63786 4.15124L5.36477 6.74484C5.14144 6.88022 5.00277 7.1329 5.00277 7.40396V12.5911C5.00277 12.8622 5.14144 13.1149 5.36477 13.2504L9.638 15.8438C9.85789 15.9774 10.1422 15.9774 10.3621 15.8438L14.6354 13.2504ZM7.20829 11.599L12.1787 7.56193C12.3978 7.38394 12.7129 7.42655 12.882 7.6568C13.0513 7.88705 13.0109 8.21805 12.7917 8.39605L7.82127 12.4331C7.73002 12.5072 7.62215 12.5431 7.51514 12.5431C7.36515 12.5431 7.21674 12.4727 7.11804 12.3383C6.94872 12.108 6.98911 11.777 7.20829 11.599ZM9.93339 8.86257C9.66966 9.1398 9.31869 9.29265 8.94566 9.29265C8.57249 9.29265 8.2218 9.13996 7.95793 8.86257C7.69435 8.58549 7.54909 8.21669 7.54909 7.82441C7.54909 7.43212 7.6942 7.06318 7.95807 6.7861C8.22195 6.50901 8.57263 6.35617 8.9458 6.35617C9.31898 6.35617 9.66966 6.50886 9.93353 6.78625C10.1973 7.06348 10.3425 7.43243 10.3425 7.82456C10.3425 8.21669 10.1973 8.58534 9.93339 8.86257ZM10.0666 11.1325C10.3303 10.8553 10.6813 10.7024 11.0543 10.7024C11.4275 10.7024 11.7782 10.8551 12.0421 11.1325C12.3057 11.4096 12.4509 11.7784 12.4509 12.1707C12.4509 12.5629 12.3058 12.9316 12.0419 13.2088C11.7782 13.4861 11.4274 13.6389 11.0543 13.6389C10.681 13.6389 10.3303 13.4862 10.0665 13.2088C9.80274 12.9316 9.65748 12.5626 9.65748 12.1705C9.65748 11.7784 9.80274 11.4097 10.0666 11.1325Z" fill="black"/>
</svg>
