<svg width="28" height="28" viewBox="0 0 28 28" fill="none" xmlns="http://www.w3.org/2000/svg">
<path fill-rule="evenodd" clip-rule="evenodd" d="M25 14C25 20.0751 20.0751 25 14 25C7.92487 25 3 20.0751 3 14C3 7.92487 7.92487 3 14 3C20.0751 3 25 7.92487 25 14ZM19.4504 11.3246L12.6129 18.1558C12.3076 18.461 11.8142 18.461 11.5089 18.1558L8.8061 15.4529C8.50083 15.1477 8.50083 14.6607 8.8061 14.3554C9.11137 14.0501 9.59837 14.0501 9.90363 14.3554L12.0641 16.5159L18.3531 10.227C18.6583 9.92173 19.1453 9.92173 19.4506 10.227C19.7558 10.5323 19.7557 11.0193 19.4504 11.3246Z" fill="black"/>
</svg>
