<svg width="14" height="16" viewBox="0 0 14 16" fill="none" xmlns="http://www.w3.org/2000/svg">
<path d="M6.99996 0.737061C6.71867 0.737061 6.4489 0.848803 6.25 1.0477C6.05109 1.24661 5.93935 1.51638 5.93935 1.79767V6.98615L4.33147 5.47797C4.23078 5.37834 4.11115 5.2999 3.97965 5.24726C3.84815 5.19462 3.70743 5.16885 3.56581 5.17149C3.42419 5.17412 3.28452 5.20509 3.15507 5.26258C3.02561 5.32007 2.90898 5.4029 2.81206 5.5062C2.71514 5.6095 2.63989 5.73116 2.59075 5.86401C2.54162 5.99687 2.5196 6.13822 2.52598 6.27972C2.53237 6.42122 2.56703 6.56002 2.62793 6.6879C2.68883 6.81579 2.77473 6.93018 2.88056 7.02433L6.2745 10.2062C6.29359 10.2253 6.31693 10.238 6.33814 10.255C6.36529 10.2783 6.39361 10.3003 6.42299 10.3207C6.45321 10.3393 6.48436 10.3563 6.51632 10.3716C6.5439 10.3865 6.57147 10.4035 6.60117 10.4141C6.63863 10.4283 6.67687 10.4403 6.71571 10.4501C6.74329 10.4501 6.76875 10.4671 6.79632 10.4735C6.9307 10.5008 7.06922 10.5008 7.20359 10.4735C7.23117 10.4735 7.25662 10.4586 7.2842 10.4501C7.32304 10.4403 7.36129 10.4283 7.39875 10.4141C7.42844 10.4013 7.45602 10.3865 7.48359 10.3716C7.51555 10.3563 7.54671 10.3393 7.57693 10.3207C7.6063 10.3003 7.63462 10.2783 7.66178 10.255C7.68299 10.238 7.70632 10.2253 7.72541 10.2062L11.1194 7.02433C11.2252 6.93018 11.3111 6.81579 11.372 6.6879C11.4329 6.56002 11.4676 6.42122 11.474 6.27972C11.4803 6.13822 11.4583 5.99687 11.4092 5.86401C11.36 5.73116 11.2848 5.6095 11.1879 5.5062C11.091 5.4029 10.9743 5.32007 10.8449 5.26258C10.7154 5.20509 10.5758 5.17412 10.4341 5.17149C10.2925 5.16885 10.1518 5.19462 10.0203 5.24726C9.88876 5.2999 9.76913 5.37834 9.66844 5.47797L8.06056 6.98615V1.79767C8.06056 1.51638 7.94882 1.24661 7.74992 1.0477C7.55102 0.848803 7.28125 0.737061 6.99996 0.737061Z" fill="black"/>
<path d="M12.9394 10.1721C12.6581 10.1721 12.3883 10.2839 12.1894 10.4828C11.9905 10.6817 11.8788 10.9514 11.8788 11.2327V12.9297C11.8788 12.986 11.8564 13.0399 11.8167 13.0797C11.7769 13.1195 11.7229 13.1418 11.6667 13.1418H2.33333C2.27708 13.1418 2.22312 13.1195 2.18334 13.0797C2.14356 13.0399 2.12121 12.986 2.12121 12.9297V11.2327C2.12121 10.9514 2.00947 10.6817 1.81057 10.4828C1.61167 10.2839 1.3419 10.1721 1.06061 10.1721C0.779316 10.1721 0.509547 10.2839 0.310644 10.4828C0.111742 10.6817 0 10.9514 0 11.2327V12.9297C0 13.5485 0.245832 14.142 0.683417 14.5796C1.121 15.0172 1.71449 15.263 2.33333 15.263H11.6667C12.2855 15.263 12.879 15.0172 13.3166 14.5796C13.7542 14.142 14 13.5485 14 12.9297V11.2327C14 10.9514 13.8883 10.6817 13.6894 10.4828C13.4905 10.2839 13.2207 10.1721 12.9394 10.1721Z" fill="black"/>
</svg>
