
<?xml version="1.0" encoding="utf-8"?>
<!-- Generator: Adobe Illustrator 26.1.0, SVG Export Plug-In . SVG Version: 6.00 Build 0)  -->
<svg version="1.1" id="Layer_1" xmlns="http://www.w3.org/2000/svg" xmlns:xlink="http://www.w3.org/1999/xlink" x="0px" y="0px"
	 viewBox="0 0 24 24" style="enable-background:new 0 0 24 24;" xml:space="preserve">
<style type="text/css">
	.st0{fill:#4E5766;}
	.st1{fill:#324154;}
</style>
<g>
	<path class="st0" d="M5,19c0,0.5,0.5,1,1,1h12c0.5,0,1-0.5,1-1V9H5V19z M7,12c0-0.5,0.5-1,1-1h1.5H11c0.5,0,1,0.5,1,1v3
		c0,0.5-0.5,1-1,1H8c-0.5,0-1-0.5-1-1V12z"/>
	<path class="st1" d="M18,20H6c-0.6,0-1-0.5-1-1V9h14v10C19,19.5,18.5,20,18,20z M19,4h-1V3c0-0.5-0.5-1-1-1c-0.6,0-1,0.5-1,1v1H8V3
		c0-0.5-0.4-1-1-1S6,2.5,6,3v1H5C3.9,4,3,4.9,3,6l0,14c0,1.1,0.9,2,2,2h14c1.1,0,2-0.9,2-2V6C21,4.9,20.1,4,19,4z"/>
</g>
</svg>
