<svg width="24" height="24" viewBox="0 0 24 24" fill="none" xmlns="http://www.w3.org/2000/svg">
<path d="M5.42292 13.25V15.5917C5.42292 16.2 5.75625 16.7667 6.28958 17.0583L10.4562 19.3333C10.9562 19.6083 11.5562 19.6083 12.0562 19.3333L16.223 17.0583C16.7563 16.7667 17.0896 16.2 17.0896 15.5917V13.25L12.0562 16C11.5562 16.275 10.9562 16.275 10.4562 16L5.42292 13.25ZM10.4562 5.2L3.43125 9.03333C2.85625 9.35 2.85625 10.1833 3.43125 10.5L10.4562 14.3333C10.9562 14.6083 11.5562 14.6083 12.0562 14.3333L18.7563 10.675V15.6C18.7563 16.0583 19.1313 16.4333 19.5896 16.4333C20.048 16.4333 20.423 16.0583 20.423 15.6V10.2583C20.423 9.95 20.2563 9.675 19.9896 9.525L12.0562 5.2C11.5562 4.93333 10.9562 4.93333 10.4562 5.2Z" fill="black"/>
</svg>
