<svg width="106" height="106" viewBox="0 0 106 106" fill="none" xmlns="http://www.w3.org/2000/svg">
<path d="M0.000167847 43.4766C0.000167847 51.0275 1.96696 58.4661 5.68787 64.9892C6.82088 66.9754 9.34973 67.6677 11.3359 66.5339C13.3221 65.4008 14.0144 62.872 12.8814 60.8858C9.87216 55.6105 8.28142 49.5905 8.28142 43.4766C8.28142 24.0698 24.07 8.28125 43.4767 8.28125C62.8835 8.28125 78.6721 24.0698 78.6721 43.4766C78.6721 62.8833 62.8835 78.6719 43.4767 78.6719C37.4372 78.6719 31.481 77.1175 26.2527 74.177C24.2592 73.0562 21.7352 73.763 20.6143 75.7565C19.4935 77.7499 20.2003 80.2739 22.1938 81.3948C28.6586 85.0316 36.018 86.9531 43.4767 86.9531C53.927 86.9531 63.5272 83.246 71.0337 77.0787L98.9417 104.797C99.7496 105.6 100.805 106 101.86 106C102.924 106 103.988 105.592 104.798 104.777C106.409 103.155 106.4 100.533 104.777 98.9213L76.9066 71.2406C83.1774 63.7042 86.9533 54.0238 86.9533 43.4766C86.9533 19.5038 67.4495 0 43.4767 0C19.504 0 0.000167847 19.5038 0.000167847 43.4766ZM28.1273 28.1263C29.7439 26.5097 32.3658 26.5097 33.9824 28.1263L43.4767 37.6207L52.9711 28.1271C54.5877 26.5097 57.2095 26.5097 58.8262 28.1271C60.4436 29.7438 60.4436 32.3656 58.8262 33.983L49.3326 43.4766L58.8262 52.9701C60.4436 54.5875 60.4436 57.2094 58.8262 58.826C58.0183 59.6347 56.958 60.0391 55.8986 60.0391C54.8392 60.0391 53.779 59.6347 52.9711 58.8268L43.4767 49.3325L33.9832 58.826C33.1745 59.6347 32.1143 60.0391 31.0549 60.0391C29.9954 60.0391 28.9352 59.6347 28.1273 58.8268C26.5099 57.2094 26.5099 54.5875 28.1273 52.9709L37.6208 43.4766L28.1273 33.983C26.5099 32.3656 26.5099 29.7438 28.1273 28.1263Z" fill="#4EA48E"/>
</svg>
