<svg version="1.1" id="Layer_1" xmlns="http://www.w3.org/2000/svg" xmlns:xlink="http://www.w3.org/1999/xlink" x="0px" y="0px"
	 viewBox="0 0 24 24" style="enable-background:new 0 0 24 24;" xml:space="preserve">
<style type="text/css">
	.st0{fill-rule:evenodd;clip-rule:evenodd;fill:#324154;}
</style>
<path class="st0" d="M21.3,7.5l-5.4-6c-0.4-0.5-1-0.7-1.6-0.7H4.2C3,0.8,2,1.9,2,3.3v17.5c0,1.4,1,2.5,2.2,2.5h15.5
	c1.2,0,2.2-1.1,2.2-2.5V9.3C22,8.6,21.7,8,21.3,7.5z M14.4,12.8l-3.2,6.5c-0.1,0.3-0.6,0.2-0.6-0.1v-4.8H8.9c-0.3,0-0.6-0.3-0.6-0.6
	V7.6C8.3,7.3,8.5,7,8.9,7h4.5c0.4,0,0.7,0.5,0.6,0.9l-1.7,4h1.7C14.3,11.9,14.6,12.4,14.4,12.8z"/>
</svg>
