<svg width="24" height="24" viewBox="0 0 24 24" fill="none" xmlns="http://www.w3.org/2000/svg">
<g clip-path="url(#clip0_7745_25898)">
<path fill-rule="evenodd" clip-rule="evenodd" d="M22.6921 10.8005L22.6753 10.7881C22.3242 10.5293 21.8913 10.2102 21.8381 10.0005C21.8608 9.58822 21.9785 9.1868 22.1821 8.82757C22.4941 8.11158 22.8161 7.36963 22.4581 6.75264C22.1001 6.13565 21.2861 6.03567 20.5032 5.95266C20.0973 5.94994 19.6975 5.85451 19.3342 5.67367C19.1531 5.30909 19.058 4.90781 19.0562 4.50072C18.9682 3.71775 18.8772 2.90779 18.2562 2.54579C17.6352 2.18379 16.8923 2.50079 16.1763 2.81676C15.8167 3.02024 15.415 3.13793 15.0024 3.16076C14.7864 3.10278 14.4614 2.66077 14.2024 2.30678L14.1955 2.2975C13.7433 1.68781 13.2337 1.00085 12.4995 1.00085C11.762 1.00085 11.2512 1.69393 10.8004 2.30562L10.7995 2.30678L10.7846 2.32705C10.5253 2.67847 10.2085 3.10781 9.99953 3.16175C9.58733 3.1369 9.186 3.01935 8.82559 2.81775C8.10562 2.50074 7.36367 2.18477 6.7487 2.54077C6.13372 2.89677 6.03074 3.71274 5.94271 4.50067C5.93985 4.90636 5.8448 5.30609 5.66471 5.66964C5.3021 5.8479 4.90382 5.94155 4.49977 5.94361C3.71582 6.03159 2.90483 6.12262 2.54386 6.74359C2.18289 7.36457 2.49994 8.10661 2.81591 8.82358C3.02013 9.18399 3.13788 9.58686 3.15991 10.0005C3.10193 10.2165 2.65991 10.5425 2.30593 10.8005C1.69396 11.2505 1 11.7625 1 12.5004C1 13.2384 1.69396 13.7504 2.30696 14.2004L2.32375 14.2128C2.6749 14.4716 3.10779 14.7907 3.16094 15.0004C3.13825 15.4127 3.02051 15.8141 2.81694 16.1733C2.50495 16.8893 2.18298 17.6313 2.54095 18.2482C2.89892 18.8652 3.71292 18.9652 4.49588 19.0482C4.90171 19.0509 5.30154 19.1464 5.66485 19.3272C5.84597 19.6918 5.94107 20.0931 5.94285 20.5002C6.03084 21.2831 6.12186 22.0931 6.74284 22.4551C7.35869 22.8141 8.08864 22.4964 8.80001 22.1868L8.81776 22.1791C9.18098 21.9779 9.58508 21.8616 9.99971 21.8391C10.2157 21.8971 10.5407 22.3391 10.7997 22.6931L10.8004 22.694C11.2512 23.3058 11.762 23.999 12.4996 23.999C13.2371 23.999 13.7479 23.306 14.1987 22.6943L14.1996 22.6931L14.2145 22.6729C14.4738 22.3214 14.7906 21.8921 14.9996 21.8381C15.4121 21.8615 15.8137 21.9791 16.1735 22.1821C16.8895 22.4941 17.6314 22.8141 18.2474 22.4591C18.8634 22.1042 18.9654 21.2872 19.0534 20.5032C19.0562 20.0975 19.1513 19.6978 19.3314 19.3342C19.6947 19.1545 20.0941 19.0598 20.4993 19.0573C21.2833 18.9693 22.0943 18.8783 22.4552 18.2573C22.8127 17.6424 22.4965 16.9137 22.1884 16.2034L22.1792 16.1824C21.9757 15.8201 21.8593 15.4154 21.8393 15.0004C21.8973 14.7844 22.3393 14.4584 22.6933 14.2004L22.6936 14.2002C23.3055 13.7493 24.0002 13.2373 24.0002 12.5005C24.0002 11.7635 23.305 11.2505 22.6921 10.8005ZM9.49937 15.0004C9.34202 15.0004 9.19381 14.9263 9.09941 14.8004L6.9995 12.0005V14.5004C6.9995 14.7765 6.77563 15.0004 6.49951 15.0004C6.22338 15.0004 5.99951 14.7765 5.99951 14.5004V10.5006C5.99951 10.2245 6.22338 10.0006 6.49951 10.0006C6.65686 10.0006 6.80507 10.0747 6.89947 10.2006L8.99938 13.0005V10.5006C8.99938 10.2245 9.22325 10.0006 9.49937 10.0006C9.7755 10.0006 9.99937 10.2245 9.99937 10.5006V14.5004C9.99923 14.7155 9.86147 14.9064 9.65738 14.9744C9.60648 14.9916 9.55314 15.0004 9.49937 15.0004ZM11.4995 15.0004H13.4994C13.7756 15.0004 13.9994 14.7766 13.9994 14.5005C13.9994 14.2243 13.7756 14.0005 13.4994 14.0005H11.9995V13.0004H13.4994C13.7756 13.0004 13.9994 12.7765 13.9994 12.5004C13.9994 12.2242 13.7756 12.0004 13.4994 12.0004H11.9995V11.0006H13.4994C13.7756 11.0006 13.9994 10.7767 13.9994 10.5006C13.9994 10.2245 13.7756 10.0006 13.4994 10.0006H11.4995C11.2234 10.0006 10.9995 10.2245 10.9995 10.5006V12.5004V14.5004C10.9995 14.7765 11.2234 15.0004 11.4995 15.0004ZM18.0238 14.6584C18.0919 14.8629 18.2833 15.0007 18.4988 15.0004L18.5189 14.9994C18.7409 14.991 18.9308 14.837 18.9848 14.6214L19.9848 10.6216C20.0516 10.3534 19.8884 10.0819 19.6203 10.0151C19.3521 9.94825 19.0806 10.1115 19.0138 10.3796L18.4308 12.7135L17.9739 11.3425C17.9217 11.2275 17.8296 11.1354 17.7145 11.0832C17.4525 10.9644 17.1437 11.0805 17.0249 11.3425L16.5679 12.7135L15.985 10.3796C15.9181 10.1115 15.6466 9.94825 15.3785 10.0151C15.1104 10.0819 14.9472 10.3535 15.014 10.6216L16.0139 14.6214C16.068 14.837 16.2578 14.991 16.4799 14.9994C16.7043 15.0162 16.91 14.8741 16.9739 14.6584L17.4989 13.0814L18.0238 14.6584Z" fill="#FFC107"/>
</g>
<defs>
<clipPath id="clip0_7745_25898">
<rect width="23" height="23" fill="white" transform="translate(1 1)"/>
</clipPath>
</defs>
</svg>
