<svg width="19" height="19" viewBox="0 0 19 19" fill="none" xmlns="http://www.w3.org/2000/svg">
<path d="M12.9558 1.21251L12.956 1.21232C13.5928 0.575025 14.6937 0.576199 15.3281 1.21115L17.7541 3.63919C18.0708 3.95617 18.2453 4.37756 18.2453 4.8256C18.2453 5.27364 18.0708 5.69499 17.7541 6.01198L17.7539 6.01216L6.78683 16.8905C6.73113 16.9459 6.66276 16.9857 6.58779 17.0074L6.58762 17.0074L0.926993 18.6262L0.926831 18.6262C0.885258 18.638 0.842298 18.6439 0.799737 18.6439C0.678383 18.6439 0.560162 18.5963 0.471901 18.5079C0.471899 18.5079 0.471898 18.5079 0.471896 18.5079L0.513849 18.466C0.409987 18.3621 0.370488 18.2099 0.410783 18.0688L12.9558 1.21251ZM12.9558 1.21251L2.08786 12.1877C2.08785 12.1877 2.08785 12.1877 2.08784 12.1877C2.03257 12.2435 1.99278 12.3119 1.97111 12.3869L1.97106 12.3871L0.35376 18.0525L12.9558 1.21251ZM3.52913 12.0559L11.2362 4.2795L12.6405 5.68379L4.97001 13.3543L4.44912 12.3122L4.44909 12.3121C4.37033 12.1551 4.21009 12.0559 4.03438 12.0559H3.52913ZM4.13875 16.7441L2.23581 14.8411L2.76658 12.9832H3.74774L4.42824 14.3442C4.42825 14.3442 4.42825 14.3442 4.42825 14.3442C4.47307 14.4339 4.54594 14.5068 4.63562 14.5516C4.63562 14.5516 4.63563 14.5516 4.63563 14.5516L5.99668 15.2321V16.2133L4.13875 16.7441ZM6.66773 14.5308L5.62561 14.0099L13.2961 6.33944L14.7004 7.74373L6.92402 15.4508V14.9455C6.92402 14.7698 6.82483 14.6096 6.6678 14.5308L6.66773 14.5308ZM1.4748 17.5051L1.94446 15.861L3.11886 17.0354L1.4748 17.5051ZM17.0997 5.36587L15.3589 7.09104L11.8888 3.62095L13.6128 1.88144C13.6129 1.88142 13.6129 1.88141 13.6129 1.88139C13.8954 1.59896 14.39 1.59898 14.6725 1.88144L17.0985 4.30743C17.2402 4.44912 17.318 4.63699 17.318 4.83724C17.318 5.03751 17.2401 5.22533 17.0997 5.36579C17.0997 5.36581 17.0997 5.36584 17.0997 5.36587Z" fill="white" stroke="white" stroke-width="0.118605"/>
</svg>
