<svg width="24" height="24" viewBox="0 0 24 24" fill="none" xmlns="http://www.w3.org/2000/svg">
<path d="M13.9289 3H5.77778C4.8 3 4 3.9 4 5V19C4 20.1 4.8 21 5.77778 21H18.2222C19.2 21 20 20.1 20 19V9.83C20 9.3 19.8133 8.79 19.4756 8.42L15.1822 3.59C14.8533 3.21 14.4 3 13.9289 3ZM8.44444 15H15.5556C16.0444 15 16.4444 15.45 16.4444 16C16.4444 16.55 16.0444 17 15.5556 17H8.44444C7.95556 17 7.55556 16.55 7.55556 16C7.55556 15.45 7.95556 15 8.44444 15ZM8.44444 11H15.5556C16.0444 11 16.4444 11.45 16.4444 12C16.4444 12.55 16.0444 13 15.5556 13H8.44444C7.95556 13 7.55556 12.55 7.55556 12C7.55556 11.45 7.95556 11 8.44444 11ZM8.44444 7H12.8889C13.3778 7 13.7778 7.45 13.7778 8C13.7778 8.55 13.3778 9 12.8889 9H8.44444C7.95556 9 7.55556 8.55 7.55556 8C7.55556 7.45 7.95556 7 8.44444 7Z" fill="#324154"/>
</svg>
